<?xml version="1.0" encoding="UTF-8" standalone="no"?>
<svg xmlns="http://www.w3.org/2000/svg" xmlns:xlink="http://www.w3.org/1999/xlink" version="1.1">
	<defs>
	   <filter id="inset-shadow">
	    	<feOffset dx="0" dy="0"/>
	     	<feGaussianBlur stdDeviation="8" result="offset-blur"/>
	     	<feComposite operator="out" in="SourceGraphic" in2="offset-blur" result="inverse"/>
	     	<feFlood flood-color="black" flood-opacity="1" result="color"/>
	     	<feComposite operator="in" in="color" in2="inverse" result="shadow"/>
	     	<feComposite operator="over" in="shadow" in2="SourceGraphic"/>
	    </filter>
		<symbol id="tile" viewBox="0 0 320 446">
			<rect x="0" y="0" width="320" height="446" rx="30" ry="30" style="fill: #ffffff" filter="url(#inset-shadow)"/>
		</symbol>
		<symbol id="p1" viewBox="0 0 320 446">
			<use xlink:href="#tile"/>
			<path style="fill: #0f1938" d="M 145.402,350.875 c -20.589,-2.310 -40.306,-9.478 -58,-21.084 -9.914,-6.503 -28.491,-24.925 -34.803,-34.513 -10.042,-15.253 -17.226,-32.992 -20.148,-49.750 -3.343,-19.172 -1.498,-45.792 4.408,-63.614 12.960,-39.103 46.312,-71.387 85.543,-82.805 14.372,-4.183 18.598,-4.696 38,-4.610 17.986,0.079 19.640,0.252 31,3.243 46.578,12.266 82.829,49.392 93.603,95.863 2.946,12.708 3.671,37.617 1.463,50.308 -1.915,11.012 -7.080,27.084 -11.622,36.171 -17.580,35.167 -51.294,61.008 -89.710,68.761 -11.769,2.375 -28.867,3.248 -39.733,2.029 z			m 32.252,-10.471 c 50.290,-8.156 89.136,-45.979 98.886,-96.281 2.055,-10.602 2.276,-30.756 0.451,-41.209 -6.074,-34.811 -27.161,-65.161 -57.740,-83.106 -21.250,-12.470 -45.443,-17.888 -70.350,-15.755 -82.246,7.045 -132.589,94.583 -97.419,169.397 8.584,18.261 25.787,37.932 42.896,49.051 24.733,16.074 54.756,22.529 83.276,17.904 z			m -41.717,-9.619 c -37.835,-7.939 -69.175,-35.990 -81.414,-72.871 -4.636,-13.971 -5.993,-24.186 -5.356,-40.335 0.649,-16.474 3.768,-29.091 10.700,-43.282 33.356,-68.292 123.886,-83.546 177.588,-29.923 14.190,14.169 23.678,30.873 29.233,51.467 2.320,8.600 2.580,11.352 2.559,27.073 -0.021,15.746 -0.29,18.501 -2.688,27.5 -3.177,11.916 -11.588,29.406 -18.539,38.551 -16.906,22.240 -41.040,37.203 -68.467,42.451 -11.257,2.153 -31.759,1.857 -43.616,-0.630 z			m 33.329,-3.250 c 6.895,-2.881 9.201,-9.442 6.605,-18.791 -2.022,-7.283 -3.136,-7.821 -14.774,-7.138 l -10.305,0.605 -1.822,3.601 c -1.002,1.980 -2.152,5.129 -2.556,6.997 -0.834,3.861 -1.207,3.860 8.750,0.029 5.559,-2.138 5.830,-2.152 7.75,-0.415 3.280,2.968 2.507,6.368 -2.510,11.041 -2.475,2.304 -4.5,4.473 -4.5,4.819 0,1.191 10.069,0.626 13.364,-0.749 z			m -42.012,-5.871 c -0.421,-0.687 -1.797,-2.775 -3.059,-4.639 -2.777,-4.105 -2.907,-7.130 -0.437,-10.180 1.681,-2.076 2.139,-2.174 4.868,-1.043 1.657,0.686 4.510,2.792 6.340,4.681 5.013,5.172 5.935,4.613 5.935,-3.598 0,-5.803 -0.305,-7.135 -1.75,-7.626 -0.962,-0.327 -5.575,-2.132 -10.25,-4.011 l -8.5,-3.416 -4.233,4.621 c -7.374,8.049 -7.989,15.160 -1.816,20.982 4.332,4.085 14.945,7.567 12.901,4.232 z			m 77.440,-3.742 c 3.397,-1.541 4.720,-2.915 6.342,-6.580 2.309,-5.221 1.948,-10.136 -0.937,-12.748 -1.641,-1.485 -2.002,-1.272 -5.239,3.100 -3.718,5.024 -6.116,6.163 -8.611,4.092 -1.225,-1.017 -1.422,-2.484 -0.924,-6.888 0.348,-3.077 0.367,-5.860 0.043,-6.185 -0.324,-0.324 -3.486,0.813 -7.027,2.527 -6.007,2.908 -6.438,3.339 -6.438,6.452 0,5.689 2.128,12.147 5.027,15.250 2.415,2.586 3.467,2.967 8.123,2.948 3.122,-0.012 7.135,-0.833 9.641,-1.970 z			m -102.616,-15.786 c 3.416,-2.253 6.478,-6.151 8.349,-10.630 0.810,-1.939 1.473,-3.751 1.473,-4.026 0,-0.275 -2.280,-2.854 -5.068,-5.730 -4.038,-4.168 -5.254,-4.936 -5.984,-3.781 -0.504,0.796 -0.925,1.898 -0.937,2.448 -0.011,0.55 -0.482,2.661 -1.046,4.692 -2.027,7.299 -8.295,5.445 -9.534,-2.819 -0.362,-2.418 -1.048,-4.637 -1.523,-4.931 -1.626,-1.005 -5.073,1.718 -6.502,5.136 -4.999,11.966 10.373,26.503 20.773,19.643 z			m 128.152,-2.585 c 4.252,-1.776 8.347,-6.719 9.686,-11.692 0.870,-3.231 0.757,-4.620 -0.609,-7.499 -1.899,-4.002 -8.767,-9.165 -13.432,-10.098 -2.759,-0.551 -3.691,-0.062 -8.048,4.229 -4.882,4.809 -4.907,4.865 -2.676,6.104 1.238,0.687 3.293,1.266 4.567,1.286 3.633,0.055 6.184,1.890 6.184,4.448 0,3.018 -1.566,4.255 -6.910,5.455 -5.602,1.258 -6.437,2.190 -4.473,4.994 2.886,4.121 9.635,5.312 15.712,2.773 z			m -53.121,-5.561 c 48.518,-12.408 71.095,-68.741 44.324,-110.592 -18.641,-29.141 -54.103,-41.395 -86.843,-30.009 -10.491,3.648 -17.333,8.176 -27.280,18.054 -7.388,7.337 -9.872,10.615 -13.260,17.500 -2.292,4.659 -5.121,12.285 -6.286,16.946 -4.174,16.703 -1.260,37.820 7.282,52.769 9.860,17.257 26.706,30.166 45.933,35.201 10.150,2.657 26.020,2.714 36.130,0.128 z			m -95.068,-20.102 2.360,-2.027 -2.5,-1.712 c -1.375,-0.941 -3.784,-2.966 -5.354,-4.499 -2.651,-2.589 -2.747,-2.945 -1.361,-5.010 1.321,-1.967 2.194,-2.183 7.603,-1.877 3.361,0.190 6.111,-0.052 6.111,-0.538 0,-0.486 -0.9,-2.649 -2,-4.807 -1.1,-2.157 -2,-4.486 -2,-5.176 0,-3.777 -8.385,-3.910 -16.783,-0.265 -7.367,3.197 -9.049,11.467 -4.247,20.880 3.349,6.564 13.207,9.295 18.170,5.033 z			m 170.261,-6.019 c 3.245,-2.849 7.258,-11.534 6.431,-13.918 -0.182,-0.526 -2.312,0.375 -4.732,2.004 -5.825,3.920 -10.007,3.869 -12.157,-0.147 -1.249,-2.334 0.597,-6.172 4.968,-10.328 4.721,-4.488 4.108,-5.565 -3.160,-5.547 -3.437,0.008 -6.746,0.345 -7.352,0.75 -0.606,0.404 -1.905,3.209 -2.887,6.234 -0.981,3.025 -2.659,7.240 -3.728,9.368 l -1.943,3.868 3.263,3.366 c 4.064,4.193 10.389,7.393 14.613,7.394 2.158,5.3e-4 4.355,-1.000 6.685,-3.045 z			m -174.667,-28.953 4.551,-2.013 -0.641,-6.140 c -0.352,-3.377 -0.641,-8.347 -0.641,-11.044 0,-4.708 -0.147,-4.965 -3.693,-6.447 -2.031,-0.848 -5.252,-1.796 -7.157,-2.105 -3.964,-0.643 -3.966,-0.486 -0.091,8.387 2.517,5.765 2.159,7.950 -1.536,9.355 -3.487,1.326 -6.825,-0.380 -10.162,-5.195 -2.334,-3.369 -2.845,-3.679 -3.659,-2.223 -1.400,2.502 -0.079,11.075 2.299,14.925 1.142,1.848 3.297,3.830 4.788,4.404 3.596,1.384 10.330,0.581 15.944,-1.902 z			m 174.267,-4.900 c 0,-0.495 -1.120,-3.307 -2.490,-6.25 -3.185,-6.842 -3.206,-9.574 -0.084,-10.997 3.690,-1.681 7.335,-0.225 10.351,4.136 3.223,4.660 3.797,4.840 4.647,1.451 1.389,-5.534 -1.659,-14.236 -5.978,-17.066 -3.166,-2.074 -12.192,-1.435 -17.826,1.262 l -3.879,1.857 0.623,8.003 c 0.342,4.401 0.625,9.434 0.629,11.183 0,2.911 0.449,3.350 5.256,5.197 5.729,2.202 8.75,2.623 8.75,1.221 z			m -171.125,-28.964 c 1.862,-0.522 3.011,-2.385 5.332,-8.650 4.515,-12.187 4.541,-12.819 0.638,-15.742 -5.440,-4.074 -9.484,-5.741 -13.927,-5.741 -3.461,0 -4.734,0.586 -7.393,3.405 -3.089,3.275 -6.475,11.977 -5.168,13.283 0.347,0.347 1.422,-0.061 2.387,-0.908 2.147,-1.882 7.755,-4.781 9.251,-4.781 0.602,0 2.217,1.121 3.588,2.493 2.934,2.934 2.488,4.286 -3.767,11.429 -2.866,3.273 -3.541,4.634 -2.595,5.234 1.494,0.948 8.234,0.935 11.652,-0.023 z			m 166.546,-6.234 c 2.156,-0.598 5.194,-2.361 6.75,-3.917 2.433,-2.433 2.828,-3.613 2.828,-8.445 0,-8.069 -2.816,-13.126 -8.782,-15.765 -4.244,-1.877 -5.011,-1.936 -8.675,-0.665 -5.332,1.848 -5.493,3.836 -0.557,6.885 4.366,2.697 5.529,4.811 4.474,8.135 -0.626,1.973 -1.136,2.079 -7.067,1.472 -3.515,-0.360 -6.393,-0.304 -6.395,0.122 0,0.427 1.190,3.590 2.65,7.027 2.640,6.221 2.671,6.249 6.752,6.244 2.255,-0.003 5.864,-0.495 8.021,-1.094 z			m -146.884,-27.937 c 4.064,-4.126 4.690,-5.208 3.462,-5.984 -0.824,-0.521 -2.219,-0.954 -3.099,-0.962 -0.880,-0.008 -3.017,-0.509 -4.75,-1.113 -2.536,-0.884 -3.149,-1.651 -3.149,-3.940 0,-3.310 0.653,-3.825 6.872,-5.411 5.440,-1.387 6.114,-3.723 1.966,-6.820 -3.234,-2.414 -10.390,-2.529 -14.821,-0.238 -4.513,2.333 -8.517,8.977 -8.517,14.130 0,3.506 0.611,4.898 3.432,7.808 3.220,3.323 10.288,7.567 12.605,7.569 0.570,4.4e-4 3.270,-2.265 5.998,-5.036 z			m 135.213,-5.285 c 3.062,-2.756 3.169,-11.453 0.199,-16.258 -3.912,-6.329 -12.528,-9.722 -17.786,-7.002 -3.781,1.955 -8.827,8.037 -10.253,12.357 -1.041,3.155 -0.873,3.577 3.246,8.175 6.067,6.771 6.669,6.653 8.333,-1.629 0.780,-3.887 2.655,-5.578 5.703,-5.145 2.185,0.310 3.000,2.108 5.726,12.635 0.133,0.514 2.445,-0.985 4.830,-3.132 z			m -105.096,-15.675 c 5.919,-2.796 6.346,-3.222 6.346,-6.318 0,-5.319 -2.748,-13.097 -5.562,-15.741 -3.316,-3.115 -11.008,-3.340 -17.294,-0.505 -4.625,2.085 -8.143,7.301 -8.143,12.074 0,2.992 2.598,8.490 4.013,8.490 0.528,0 2.085,-1.780 3.459,-3.957 3.145,-4.982 5.777,-6.514 8.598,-5.004 1.887,1.010 2.010,1.681 1.383,7.535 -0.378,3.534 -0.341,6.426 0.081,6.426 0.423,0 3.625,-1.349 7.116,-2.998 z			m 70.920,0.324 c 7.226,-7.797 8.964,-15.980 4.426,-20.842 -1.375,-1.473 -4.075,-3.470 -6,-4.439 -3.736,-1.879 -9,-3.399 -9,-2.598 0,0.266 1.35,2.613 3,5.214 3.411,5.378 3.639,6.980 1.443,10.116 -2.380,3.398 -5.657,2.734 -11.232,-2.277 -2.752,-2.475 -5.220,-4.5 -5.483,-4.5 -1.015,0 -1.656,6.242 -1.075,10.479 0.604,4.412 0.653,4.459 6.728,6.519 3.365,1.141 7.244,2.717 8.619,3.502 3.684,2.104 5.803,1.814 8.573,-1.175 z			m -31.907,-10.576 c 1.135,-2.337 2.396,-5.757 2.800,-7.599 0.697,-3.176 0.614,-3.311 -1.615,-2.621 -1.293,0.400 -4.020,1.570 -6.061,2.599 -6.691,3.375 -10.789,2.061 -10.789,-3.460 0,-2.066 1.054,-3.926 3.571,-6.3 1.964,-1.852 3.989,-3.368 4.5,-3.368 0.510,0 0.928,-0.45 0.928,-1 0,-0.560 -2.747,-0.998 -6.25,-0.996 -6.839,0.004 -11.691,2.150 -13.809,6.108 -1.567,2.929 -0.696,13.524 1.453,17.683 l 1.657,3.204 10.775,0 10.775,0 2.064,-4.250 z"/>
			<path style="fill: #881c21" d="M 146.944,286.447 c -13.662,-2.591 -28.412,-11.511 -37.763,-22.838 -26.393,-31.971 -15.965,-80.494 21.221,-98.749 10.420,-5.115 17.948,-6.947 28.550,-6.947 17.933,0 33.345,6.403 46.100,19.153 12.610,12.605 18.849,27.717 18.849,45.661 0,18.334 -5.653,31.834 -18.974,45.307 -7.054,7.135 -9.992,9.315 -17.025,12.636 -4.675,2.206 -10.681,4.531 -13.346,5.165 -7.902,1.879 -19.559,2.137 -27.611,0.610 z			m 17.958,-24.034 0.500,-10 2.918,7.934 c 2.278,6.194 3.923,8.877 7.5,12.233 2.519,2.364 4.857,4.306 5.194,4.315 0.337,0.009 0.851,-2.956 1.143,-6.591 0.481,-5.999 0.211,-7.312 -2.929,-14.25 l -3.459,-7.641 6.316,6.219 c 4.816,4.743 7.718,6.701 12.222,8.25 3.248,1.116 6.031,2.030 6.184,2.030 0.152,0 -0.647,-2.812 -1.778,-6.25 -1.621,-4.926 -3.348,-7.573 -8.155,-12.5 -3.354,-3.437 -5.836,-6.25 -5.515,-6.25 0.320,0 3.560,1.35 7.199,3 5.337,2.420 7.973,3 13.638,3 3.862,0 7.021,-0.386 7.021,-0.859 0,-0.472 -1.755,-2.853 -3.900,-5.290 -3.129,-3.555 -5.599,-5.076 -12.5,-7.697 -4.729,-1.796 -8.599,-3.461 -8.599,-3.698 0,-0.237 3.944,-0.152 8.764,0.189 8.483,0.602 8.972,0.517 15.218,-2.635 l 6.453,-3.257 -5.867,-2.966 c -5.471,-2.766 -6.494,-2.943 -15.169,-2.625 -5.116,0.187 -8.986,0.065 -8.600,-0.272 0.385,-0.337 4.076,-1.860 8.201,-3.385 6.018,-2.224 8.433,-3.782 12.226,-7.886 l 4.726,-5.114 -6.226,-0.737 c -6.571,-0.778 -7.675,-0.540 -17.226,3.711 l -6,2.671 6.219,-6.322 c 4.743,-4.821 6.702,-7.726 8.252,-12.236 1.118,-3.252 1.880,-6.066 1.694,-6.252 -0.186,-0.186 -2.999,0.576 -6.252,1.694 -4.523,1.554 -7.393,3.495 -12.206,8.252 l -6.292,6.219 3.631,-7.876 c 3.436,-7.454 3.594,-8.246 2.937,-14.780 l -0.693,-6.904 -4.645,4.198 c -3.684,3.330 -5.409,6.078 -8.339,13.280 l -3.693,9.081 -0.056,-10.283 c -0.048,-8.938 -0.385,-10.932 -2.572,-15.25 -1.384,-2.731 -2.726,-4.966 -2.983,-4.966 -0.256,0 -1.598,2.235 -2.983,4.966 -2.185,4.313 -2.525,6.319 -2.579,15.25 l -0.062,10.283 -3.687,-9.085 c -2.851,-7.026 -4.656,-9.948 -7.963,-12.890 -2.352,-2.092 -4.528,-3.551 -4.837,-3.243 -0.308,0.308 -0.799,3.190 -1.090,6.403 -0.458,5.061 -0.113,6.760 2.587,12.717 1.714,3.781 3.117,7.136 3.117,7.455 0,0.319 -2.587,-1.979 -5.75,-5.107 -4.280,-4.234 -7.261,-6.207 -11.664,-7.721 -3.252,-1.118 -6.066,-1.881 -6.252,-1.694 -0.186,0.186 0.576,2.999 1.694,6.252 1.550,4.510 3.509,7.415 8.252,12.236 l 6.219,6.322 -6,-2.660 c -9.828,-4.358 -10.184,-4.438 -16.977,-3.803 l -6.532,0.609 4.255,4.943 c 3.524,4.094 5.714,5.517 12.755,8.289 l 8.5,3.346 -9.227,0.065 c -7.926,0.056 -10.006,0.447 -14.75,2.773 -3.037,1.489 -5.522,2.981 -5.522,3.316 0,0.334 2.662,1.880 5.917,3.435 5.592,2.672 6.393,2.789 14.596,2.123 4.773,-0.387 8.449,-0.332 8.168,0.121 -0.280,0.454 -4.036,2.139 -8.346,3.745 -6.229,2.321 -8.604,3.818 -11.585,7.302 -2.062,2.410 -3.75,4.801 -3.75,5.314 0,0.512 3.108,0.931 6.906,0.931 5.533,0 8.246,-0.601 13.643,-3.022 3.705,-1.662 6.901,-2.858 7.102,-2.657 0.200,0.200 -2.226,2.619 -5.393,5.374 -4.942,4.299 -6.065,5.952 -7.918,11.657 -1.187,3.656 -1.820,6.647 -1.406,6.647 0.414,0 3.401,-0.911 6.639,-2.025 4.715,-1.622 7.035,-3.263 11.662,-8.25 l 5.776,-6.224 -2.621,6 c -4.238,9.700 -4.625,11.559 -3.727,17.917 l 0.836,5.917 5.115,-4.917 c 3.941,-3.788 5.777,-6.638 8,-12.417 l 2.884,-7.5 0.517,10 c 0.411,7.954 1.018,10.978 2.965,14.783 l 2.447,4.783 2.534,-4.783 c 2.067,-3.902 2.626,-6.625 3.034,-14.783 z			m -6.293,-0.831 c -0.388,-1.007 -0.706,-4.044 -0.706,-6.75 0,-4.303 -0.258,-4.918 -2.065,-4.918 -1.136,0 -2.940,-0.468 -4.009,-1.040 -1.646,-0.881 -2.104,-0.616 -2.998,1.734 -2.134,5.613 -4.323,9.612 -4.678,8.546 -0.200,-0.602 0.622,-3.392 1.830,-6.198 1.207,-2.806 2.021,-5.203 1.809,-5.326 -0.212,-0.122 -1.895,-1.281 -3.739,-2.576 l -3.353,-2.353 -4.184,4.106 c -2.301,2.258 -4.600,4.106 -5.108,4.106 -0.508,0 1.218,-2.176 3.838,-4.835 4.316,-4.382 4.607,-4.964 3.108,-6.208 -0.910,-0.755 -2.037,-2.380 -2.506,-3.612 l -0.851,-2.239 -6.157,2.501 c -7.967,3.237 -9.042,2.237 -1.334,-1.239 3.246,-1.464 5.981,-2.712 6.077,-2.773 0.096,-0.060 -0.333,-2.018 -0.956,-4.351 l -1.132,-4.241 -5.734,0 c -3.153,0 -6.012,-0.45 -6.352,-1 -0.387,-0.627 1.785,-1 5.827,-1 6.250,0 6.459,-0.083 6.917,-2.75 0.259,-1.512 0.793,-3.497 1.186,-4.411 0.567,-1.320 -0.561,-2.233 -5.503,-4.451 -3.419,-1.534 -5.735,-2.951 -5.145,-3.147 0.589,-0.196 3.327,0.612 6.083,1.798 4.870,2.095 7.133,2.010 7.133,-0.268 0,-0.611 0.738,-1.928 1.641,-2.925 1.541,-1.702 1.388,-2.088 -2.5,-6.306 -2.277,-2.471 -4.141,-4.741 -4.141,-5.045 0,-1.040 6.030,3.905 7.505,6.155 l 1.473,2.248 4.041,-2.646 c 2.840,-1.860 3.846,-3.107 3.382,-4.198 -3.575,-8.420 -4.439,-11.326 -3.017,-10.147 0.830,0.688 2.287,3.354 3.239,5.923 0.951,2.569 1.819,4.803 1.929,4.964 0.109,0.161 2.054,-0.285 4.322,-0.993 4.013,-1.252 4.125,-1.407 4.193,-5.793 0.038,-2.478 0.415,-5.390 0.838,-6.470 0.608,-1.556 0.908,-1.086 1.444,2.267 0.372,2.327 0.410,5.292 0.084,6.588 -0.500,1.995 -0.157,2.431 2.235,2.840 1.554,0.265 3.601,0.815 4.547,1.220 1.388,0.595 2.229,-0.389 4.363,-5.108 1.453,-3.215 2.847,-5.304 3.097,-4.642 0.249,0.661 -0.483,3.322 -1.629,5.913 l -2.083,4.710 3.266,2.795 c 3.899,3.338 4.400,3.428 5.683,1.032 0.543,-1.014 2.686,-3.140 4.763,-4.725 l 3.776,-2.880 -2.265,3.181 c -1.246,1.750 -3.409,4.081 -4.806,5.180 l -2.540,1.998 2.828,3.544 c 1.555,1.949 3.108,3.544 3.451,3.544 0.342,2e-5 2.726,-0.930 5.297,-2.067 2.570,-1.137 5.168,-1.902 5.772,-1.701 0.603,0.201 -1.700,1.621 -5.120,3.156 -4.941,2.217 -6.071,3.131 -5.503,4.451 0.392,0.913 0.926,2.898 1.186,4.411 0.457,2.666 0.667,2.75 6.917,2.75 4.042,0 6.215,0.372 5.827,1 -0.339,0.55 -3.239,1 -6.442,1 -5.214,0 -5.880,0.235 -6.360,2.25 -0.294,1.237 -0.824,3.168 -1.178,4.290 -0.547,1.738 0.181,2.381 4.919,4.345 3.059,1.267 5.561,2.692 5.561,3.165 0,0.854 -6.161,-0.996 -9.801,-2.944 -1.612,-0.862 -2.310,-0.393 -4.587,3.084 l -2.685,4.101 2.853,2.603 c 1.569,1.432 3.723,3.701 4.787,5.042 l 1.933,2.439 -3,-2.091 c -1.65,-1.150 -4.066,-3.234 -5.369,-4.630 l -2.369,-2.539 -3.130,2.188 c -1.721,1.203 -3.286,2.271 -3.478,2.372 -0.191,0.101 0.612,2.749 1.785,5.884 2.830,7.565 1.781,8.249 -1.536,1.002 -2.240,-4.893 -2.942,-5.654 -4.764,-5.165 -1.175,0.315 -3.169,0.579 -4.432,0.587 -2.031,0.012 -2.233,0.386 -1.755,3.263 0.702,4.228 -0.716,11.081 -1.743,8.418 z			m -4.706,-19.668 c 1.111,-1.111 2,-3.333 2,-5 0,-1.666 -0.888,-3.888 -2,-5 -1.111,-1.111 -3.333,-2 -5,-2 -1.666,0 -3.888,0.888 -5,2 -1.111,1.111 -2,3.333 -2,5 0,1.666 0.888,3.888 2,5 1.111,1.111 3.333,2 5,2 1.666,0 3.888,-0.888 5,-2 z			m 20.365,-0.072 c 5.294,-4.164 2.164,-11.927 -4.808,-11.927 -3.919,0 -6.566,2.821 -6.541,6.972 0.018,3.005 0.796,4.308 3.484,5.832 2.937,1.665 4.912,1.445 7.865,-0.877 z			m -9.037,-11.970 c 1.498,-1.178 2.875,-3.525 3.254,-5.546 0.605,-3.229 0.790,-3.382 2.365,-1.956 2.633,2.383 8.621,1.997 10.494,-0.676 3.467,-4.950 0.671,-10.777 -5.171,-10.777 -4.527,0 -7.260,2.393 -7.312,6.404 l -0.04,3.095 -1.449,-2.668 c -0.815,-1.501 -2.947,-3.163 -4.874,-3.799 -9.596,-3.167 -16.753,7.964 -9.673,15.045 3.560,3.560 8.547,3.914 12.404,0.879 z			m -9.446,-0.963 c -0.890,-0.520 -2.194,-2.335 -2.897,-4.033 -1.128,-2.724 -1.044,-3.402 0.717,-5.773 2.472,-3.327 7.610,-4.118 10.392,-1.601 5.614,5.081 -1.685,15.222 -8.212,11.408 z			m -7.881,-6.993 c 1.111,-1.111 2,-3.333 2,-5 0,-1.666 -0.888,-3.888 -2,-5 -1.111,-1.111 -3.333,-2 -5,-2 -1.666,0 -3.888,0.888 -5,2 -1.111,1.111 -2,3.333 -2,5 0,1.666 0.888,3.888 2,5 1.111,1.111 3.333,2 5,2 1.666,0 3.888,-0.888 5,-2 z			m 16.171,-11.654 c 2.171,-1.965 2.407,-7.171 0.445,-9.853 -1.772,-2.423 -7.989,-2.547 -10.331,-0.205 -2.341,2.341 -2.217,8.559 0.205,10.331 2.570,1.879 7.454,1.742 9.680,-0.272 z"/>
		</symbol>
	</defs>
	<use xlink:href="#p1"/>
</svg>
