<?xml version="1.0" encoding="UTF-8" standalone="no"?>
<svg xmlns="http://www.w3.org/2000/svg" xmlns:xlink="http://www.w3.org/1999/xlink" version="1.1">
	<defs>
	   <filter id="inset-shadow">
	    	<feOffset dx="0" dy="0"/>
	     	<feGaussianBlur stdDeviation="8" result="offset-blur"/>
	     	<feComposite operator="out" in="SourceGraphic" in2="offset-blur" result="inverse"/>
	     	<feFlood flood-color="black" flood-opacity="1" result="color"/>
	     	<feComposite operator="in" in="color" in2="inverse" result="shadow"/>
	     	<feComposite operator="over" in="shadow" in2="SourceGraphic"/>
	    </filter>
		<symbol id="tile" viewBox="0 0 320 446">
			<rect x="0" y="0" width="320" height="446" rx="30" ry="30" style="fill: #ffffff" filter="url(#inset-shadow)"/>
		</symbol>
		<symbol id="s1" viewBox="0 0 320 446">
			<use xlink:href="#tile"/>
			<path style="fill: #881c21" d="M 127.443,390.790 c 1.031,-1.237 2.985,-3.487 4.342,-5 2.894,-3.228 3.117,-3.194 -7.669,-1.172 -4.629,0.867 -8.689,1.304 -9.022,0.972 -0.332,-0.332 0.269,-1.468 1.339,-2.524 1.383,-1.365 5.510,-2.523 14.312,-4.016 6.802,-1.153 12.784,-1.958 13.294,-1.788 0.509,0.169 -2.281,3.789 -6.201,8.043 -5.338,5.793 -7.773,7.735 -9.699,7.735 -2.555,0 -2.560,-0.013 -0.695,-2.25 z			 m 50.433,-4.367 c 0,-0.339 1.377,-2.187 3.061,-4.105 1.683,-1.917 2.907,-3.641 2.718,-3.830 -0.188,-0.188 -3.546,0.590 -7.460,1.732 -6.571,1.916 -7.291,1.953 -9.390,0.483 -1.722,-1.206 -1.928,-1.714 -0.851,-2.096 3.602,-1.276 31.214,-8.606 31.462,-8.352 0.153,0.157 -2.942,3.964 -6.879,8.459 -5.592,6.384 -7.761,8.189 -9.909,8.25 -1.512,0.042 -2.75,-0.201 -2.75,-0.541 z			 m -44.911,-11.306 c -1.129,-0.714 -0.177,-2.798 4.75,-10.405 6.073,-9.374 6.161,-9.613 6.161,-16.591 l 0,-7.079 -4.25,-0.006 c -8.730,-0.011 -15.965,-1.832 -19.924,-5.014 l -3.816,-3.066 -9.711,3.637 c -18.097,6.778 -23.232,7.788 -39.797,7.830 -26.390,0.066 -28.742,-2.919 -16.597,-21.071 10.556,-15.778 22.702,-26.138 41.974,-35.801 4.945,-2.479 9.470,-4.508 10.057,-4.508 0.586,0 1.065,-0.385 1.065,-0.856 0,-0.470 -3.712,-1.157 -8.25,-1.526 -4.537,-0.368 -12.3,-1.185 -17.25,-1.814 -11.552,-1.468 -8.816,-2.295 10.841,-3.278 10.764,-0.538 14.658,-1.068 14.658,-1.997 0,-0.695 -6.412,-3.858 -14.25,-7.028 -7.837,-3.169 -15.375,-6.361 -16.75,-7.091 -2.197,-1.166 -2.257,-1.330 -0.5,-1.352 1.797,-0.022 12.456,2.224 16.651,3.510 1.338,0.410 1.781,-0.495 2.337,-4.779 1.258,-9.695 3.748,-19.189 7.146,-27.246 1.850,-4.388 3.365,-8.052 3.365,-8.141 0,-0.089 -2.900,-2.052 -6.445,-4.362 -6.037,-3.933 -9.631,-7.035 -8.151,-7.035 1.681,0 15.182,7.473 23.658,13.095 12.804,8.493 36.330,31.847 37.302,37.030 0.367,1.959 3.158,7.345 6.201,11.968 3.043,4.622 7.162,11.189 9.154,14.592 l 3.622,6.187 2.831,-1.464 c 2.820,-1.458 2.825,-1.478 1.286,-5.187 -2.909,-7.013 -7.963,-14.484 -14.709,-21.746 -7.042,-7.579 -7.737,-8.883 -5.25,-9.838 1.271,-0.488 1.5,-4.001 1.5,-23.106 0,-21.864 0.059,-22.531 2,-22.531 1.936,0 2,0.666 2,20.833 0,11.458 0.280,21.114 0.623,21.457 0.343,0.343 2.426,-0.295 4.629,-1.419 l 4.005,-2.043 -0.620,-5.163 c -0.341,-2.840 -0.624,-12.026 -0.629,-20.413 l -0.009,-15.25 -2.539,0 c -1.396,0 -4.410,-0.954 -6.697,-2.121 -5.118,-2.611 -13.866,-2.191 -20.762,0.996 -2.475,1.144 -5.680,2.090 -7.124,2.102 -1.443,0.012 -4.543,0.699 -6.889,1.526 -3.646,1.286 -6.257,1.337 -17.995,0.354 l -13.730,-1.150 -1.420,-4.574 -1.420,-4.574 -7.959,-1.792 c -11.457,-2.580 -10.930,-2.107 -7.969,-7.159 l 2.588,-4.417 -8.289,-2.673 c -4.559,-1.470 -8.964,-2.915 -9.789,-3.211 -0.879,-0.315 0.913,-1.363 4.337,-2.533 3.210,-1.097 5.460,-2.321 5,-2.720 -0.460,-0.398 -3.312,-1.744 -6.337,-2.991 -3.025,-1.246 -5.861,-2.603 -6.302,-3.015 -0.441,-0.411 2.033,-1.328 5.5,-2.038 3.466,-0.709 6.655,-1.601 7.087,-1.982 0.431,-0.381 -1.730,-2.042 -4.804,-3.692 l -5.589,-2.999 11.065,-2.321 c 6.085,-1.277 10.850,-2.536 10.588,-2.798 -0.262,-0.262 -3.754,-1.270 -7.760,-2.239 l -7.283,-1.762 6,-0.174 c 9.680,-0.281 10.747,-1.249 4.395,-3.989 -6.152,-2.654 -6.296,-2.508 6.104,-6.182 6.887,-2.040 7.255,-2.279 4.5,-2.923 -1.65,-0.385 -4.575,-0.761 -6.5,-0.835 -7.041,-0.268 -6.480,-1.837 1.124,-3.141 4.056,-0.695 7.737,-1.581 8.180,-1.968 0.442,-0.386 -1.275,-1.285 -3.817,-1.996 -5.345,-1.496 -4.528,-2.527 2.801,-3.535 l 4.883,-0.671 -2.772,-2.894 c -2.616,-2.731 -2.654,-2.894 -0.667,-2.894 1.157,0 2.878,-0.296 3.824,-0.659 1.349,-0.517 0.776,-1.152 -2.668,-2.954 l -4.387,-2.295 5.75,-0.045 c 3.162,-0.024 5.746,-0.382 5.742,-0.795 -0.004,-0.412 -1.916,-2.017 -4.25,-3.565 -2.333,-1.548 -3.342,-2.585 -2.242,-2.303 1.1,0.281 3.8,0.784 6,1.117 3.795,0.573 3.877,0.532 1.614,-0.804 -2.578,-1.523 -2.197,-2.038 2.304,-3.117 l 2.919,-0.699 -5.919,-3.935 c -6.606,-4.392 -6.546,-4.449 2.580,-2.441 9.303,2.046 9.356,2.025 6.483,-2.526 l -2.541,-4.026 2.279,0.463 c 1.253,0.255 3.585,0.742 5.181,1.083 l 2.902,0.620 -1.652,-2.557 c -0.908,-1.406 -2.379,-3.682 -3.267,-5.057 -0.888,-1.375 -1.450,-2.495 -1.25,-2.489 0.200,0.006 2.502,0.659 5.115,1.452 4.975,1.509 5.622,1.036 3.642,-2.664 -1.187,-2.219 -1.408,-2.210 5.744,-0.219 2.049,0.570 2.100,0.4 1.249,-4.158 -0.488,-2.614 -0.718,-4.922 -0.510,-5.130 0.207,-0.207 2.638,0.482 5.402,1.532 l 5.025,1.909 0.598,-2.991 c 0.329,-1.645 0.598,-4.081 0.598,-5.414 l 0,-2.423 4.430,3.048 c 2.436,1.676 4.686,3.048 5,3.048 0.313,0 0.573,-2.362 0.578,-5.25 l 0.009,-5.25 3.666,5.241 c 2.016,2.882 3.843,5.064 4.060,4.847 0.216,-0.216 0.736,-2.575 1.155,-5.241 l 0.761,-4.847 2.533,5.5 2.533,5.5 0.699,-5 c 0.384,-2.75 0.799,-5.675 0.921,-6.5 0.122,-0.825 1.082,0.862 2.133,3.75 1.051,2.887 2.166,5.25 2.477,5.25 0.310,0 1.254,-2.362 2.097,-5.25 l 1.532,-5.25 1.533,4.483 1.533,4.483 1.837,-4.983 c 1.010,-2.741 2.128,-5.327 2.485,-5.747 0.356,-0.419 1.460,1.815 2.454,4.966 l 1.806,5.729 2.222,-4.356 2.222,-4.356 2.769,3.630 c 3.049,3.997 4.494,3.948 4.645,-0.158 0.081,-2.211 0.344,-1.907 1.478,1.704 0.758,2.417 1.581,4.596 1.827,4.843 0.246,0.246 1.772,-1.871 3.391,-4.705 3.073,-5.380 4.203,-5.132 4.203,0.923 0,1.536 0.278,4.185 0.618,5.887 l 0.618,3.094 4.381,-3.589 4.381,-3.589 0,4.953 c 0,2.724 0.273,5.226 0.606,5.560 0.333,0.333 3.102,-0.497 6.153,-1.846 3.050,-1.349 5.732,-2.267 5.960,-2.039 0.227,0.227 -0.771,2.753 -2.220,5.612 -1.448,2.859 -2.422,5.410 -2.164,5.669 0.258,0.258 2.357,-0.492 4.664,-1.669 2.306,-1.176 4.432,-1.900 4.725,-1.608 0.292,0.292 0.003,2.628 -0.641,5.191 -0.645,2.562 -0.976,4.856 -0.736,5.096 0.240,0.240 2.060,-0.241 4.045,-1.070 4.004,-1.673 4.241,-1.305 2.677,4.146 -1.054,3.677 -0.770,3.774 6.767,2.318 l 4.337,-0.838 -3.837,4.005 -3.837,4.005 6.25,-0.529 c 3.437,-0.291 6.25,-0.352 6.25,-0.135 0,0.216 -2.716,2.370 -6.035,4.785 l -6.035,4.391 5.664,0.707 5.664,0.707 -5.128,5.193 c -2.820,2.856 -5.128,5.516 -5.128,5.911 0,0.395 1.293,0.718 2.875,0.718 1.581,0 4.241,0.273 5.912,0.607 l 3.037,0.607 -3.470,3.047 c -4.305,3.779 -3.264,4.701 5.337,4.722 3.405,0.008 6.424,0.392 6.708,0.853 0.284,0.460 -2.051,2.758 -5.190,5.106 l -5.708,4.268 8.845,-0.501 c 4.864,-0.275 8.464,-0.156 8,0.266 -0.464,0.422 -4.445,2.390 -8.845,4.374 -4.4,1.983 -7.775,3.678 -7.5,3.767 0.275,0.088 4.775,0.680 10,1.314 l 9.5,1.153 -6.712,3.402 -6.712,3.402 3.434,2.443 c 3.753,2.670 3.728,4.163 -0.069,4.163 -3.119,0 -3.071,0.732 0.279,4.229 l 2.720,2.839 -5.720,-0.672 c -5.850,-0.687 -7.189,0.138 -4.220,2.603 2.749,2.281 1.553,3.721 -4.5,5.419 -6.876,1.929 -6.919,2.051 -4.451,12.522 0.835,3.543 1.292,7.030 1.016,7.75 -0.322,0.841 -2.326,1.307 -5.612,1.307 l -5.110,0 0.638,2.909 0.638,2.909 -7.309,0.672 c -6.171,0.567 -8.661,0.278 -15.998,-1.859 -10.231,-2.980 -23.626,-5.631 -28.456,-5.631 -1.926,0 -5.487,1.202 -8.139,2.75 l -4.714,2.75 0.271,19.810 0.271,19.810 2.228,-0.681 c 5.028,-1.537 4.900,-0.968 4.772,-21.275 -0.116,-18.530 -0.054,-19.164 1.877,-19.164 1.812,0 2.024,0.766 2.288,8.25 0.269,7.643 0.452,8.273 2.498,8.564 2.106,0.299 2.221,-0.068 2.5,-7.988 0.244,-6.975 0.571,-8.356 2.041,-8.637 1.562,-0.298 1.75,0.635 1.75,8.710 l 0,9.044 3.25,0.881 c 1.787,0.484 3.587,0.696 4,0.469 0.412,-0.226 0.75,-4.660 0.75,-9.853 0,-8.774 0.141,-9.440 2,-9.440 1.872,0 2,0.666 2,10.440 0,5.742 0.337,10.630 0.75,10.861 0.412,0.231 1.987,0.716 3.5,1.078 l 2.75,0.657 0,-9.592 c 0,-8.596 0.181,-9.557 1.75,-9.257 1.504,0.288 1.789,1.740 2.032,10.366 l 0.282,10.031 2.909,1.098 c 1.600,0.603 3.160,0.847 3.467,0.540 0.306,-0.306 0.557,-4.307 0.557,-8.891 0,-7.745 0.145,-8.333 2.058,-8.333 1.950,0 2.048,0.511 1.862,9.711 l -0.195,9.711 5.006,2.704 5.006,2.704 4.763,-6.487 c 9.817,-13.370 23.666,-25.371 38.998,-33.794 l 5,-2.746 -3,2.684 c -1.65,1.476 -7.131,6.244 -12.181,10.595 -8.754,7.543 -22.832,23.288 -26.569,29.717 l -1.751,3.011 4.868,4.076 4.868,4.076 4.285,-6.108 c 5.182,-7.387 14.398,-17.363 21.356,-23.118 5.642,-4.666 5.209,-3.855 -4.490,8.404 -3.637,4.597 -8.869,12.365 -11.626,17.261 l -5.013,8.902 3.354,4.394 c 4.498,5.893 9.681,15.289 13.431,24.350 3.358,8.113 7.967,24.686 7.967,28.646 l 0,2.477 -23.25,-0.798 c -36.398,-1.249 -33.095,-1.521 -33.804,2.788 -0.331,2.015 -1.347,4.801 -2.258,6.191 -3.247,4.956 -14.871,11.541 -23.056,13.061 -3.813,0.708 -3.861,0.771 -3.261,4.400 0.334,2.025 0.613,5.144 0.619,6.932 0.009,2.797 0.359,3.25 2.511,3.25 1.833,0 2.5,0.533 2.5,2 0,1.446 -0.666,2 -2.410,2 -1.864,0 -3.836,1.925 -8.705,8.5 -5.339,7.209 -6.728,8.5 -9.148,8.5 -3.406,0 -3.510,0.223 5.042,-10.822 l 6.443,-8.322 -0.696,-7.427 c -0.431,-4.606 -1.138,-7.420 -1.860,-7.407 -0.640,0.010 -4.166,0.453 -7.834,0.984 -3.668,0.530 -11.675,1.030 -17.794,1.109 l -11.124,0.145 0.294,6.120 c 0.277,5.774 0.426,6.101 2.632,5.792 3.098,-0.434 2.613,2.905 -0.628,4.327 -1.253,0.55 -4.850,4.930 -7.994,9.734 -5.754,8.794 -6.546,9.474 -9.127,7.841 z			 m -62.575,-39.527 c 1.918,-2.998 3.487,-5.586 3.486,-5.75 -6.6e-4,-0.163 -4.74,-0.364 -10.531,-0.445 l -10.530,-0.147 -1.969,3.861 -1.969,3.861 2.061,1.103 c 1.133,0.606 4.847,1.466 8.251,1.909 3.404,0.443 6.533,0.863 6.952,0.932 0.419,0.069 2.331,-2.326 4.25,-5.325 z			 m 23.987,-0.105 c 6.05,-1.817 12.862,-4.122 15.138,-5.123 3.651,-1.604 4.037,-2.083 3.282,-4.068 -1.027,-2.701 -1.040,-2.701 -17.420,0.090 l -13,2.215 -3.25,4.960 c -1.787,2.728 -3.25,5.323 -3.25,5.767 0,1.164 5.942,-0.069 18.5,-3.841 z			 m 86.163,-0.037 c 19.034,-2.736 27.743,-6.971 32.176,-15.648 2.238,-4.380 2.326,-5.089 1.159,-9.260 -1.703,-6.085 -7.707,-12.671 -14.211,-15.591 -4.294,-1.927 -6.978,-2.375 -14.287,-2.382 -10.513,-0.01 -12.481,0.812 -25.592,10.693 -4.624,3.484 -10.539,7.336 -13.146,8.559 -19.332,9.072 -25.700,-9.313 -9.273,-26.776 5.295,-5.628 6.943,-9.696 6.834,-16.861 -0.070,-4.631 -0.628,-7.078 -2.051,-9 -6.839,-9.235 -20.127,-10.592 -28.837,-2.944 -4.848,4.256 -6.432,7.752 -6.432,14.191 0,7.253 1.015,9.604 6.593,15.263 4.846,4.915 8.345,11.210 8.384,15.078 0.012,1.224 -1.035,5.049 -2.329,8.5 -3.187,8.505 -3.898,12.983 -2.604,16.399 1.357,3.581 4.594,7.115 8.270,9.027 6.427,3.343 34.649,3.726 55.348,0.750 z			 m -60.663,-61.404 c -2.614,-2.614 -2.711,-9.046 -0.171,-11.345 3.815,-3.453 11.312,-1.213 12.558,3.752 0.676,2.696 -0.832,7.619 -2.699,8.807 -2.316,1.472 -7.671,0.801 -9.687,-1.214 z			 m 7.946,-3.436 c 0.884,-1.065 0.907,-1.968 0.087,-3.5 -1.343,-2.510 -4.580,-2.696 -5.899,-0.339 -2.129,3.805 3.018,7.206 5.812,3.839 z			 m -47.492,49.792 c 1.950,-2.554 3.545,-5.029 3.545,-5.5 0,-0.470 -4.464,-0.856 -9.922,-0.856 l -9.922,0 -4.055,4.744 c -4.924,5.760 -4.501,6.083 8.104,6.185 l 8.704,0.070 3.545,-4.643 z			 m 20.795,0.959 c 8.752,-1.387 10.75,-2.017 10.75,-3.393 0,-2.258 -2.855,-2.895 -13,-2.896 l -8.5,-10e-4 -2.25,3.473 c -1.237,1.910 -2.25,3.704 -2.25,3.987 0,0.902 4.218,0.578 15.25,-1.169 z			 m 13.725,-13.993 c 1.138,-2.572 1.721,-4.997 1.296,-5.388 -0.424,-0.390 -3.761,-1.016 -7.415,-1.390 l -6.643,-0.680 -3.731,4.463 c -2.052,2.455 -3.787,4.848 -3.856,5.318 -0.119,0.817 6.717,1.845 14.577,2.191 3.499,0.154 3.817,-0.094 5.772,-4.514 z			 m 129.024,2.759 c 0,-3.492 -1.002,-3.814 -6.800,-2.184 l -5.699,1.602 3.5,0.618 c 5.519,0.975 9,0.960 9,-0.036 z			 m 24.807,-3.840 c 0.223,-3.092 -0.107,-4.418 -1.209,-4.841 -1.443,-0.553 -7.730,0.505 -15.788,2.659 -3.576,0.956 -3.657,1.079 -2.639,4.000 l 1.050,3.013 9.139,-0.286 9.139,-0.286 0.307,-4.259 z			 m -176.548,-1.038 3.758,-4.702 -6.738,-0.300 c -8.711,-0.389 -9.958,-0.020 -15.269,4.513 l -4.435,3.786 5.962,0.581 c 12.726,1.242 12.604,1.270 16.721,-3.879 z			 m 148.274,-3.401 c 0.504,-0.504 -0.838,-4.146 -2.071,-5.619 -0.428,-0.511 -8.393,3.754 -14.160,7.582 -8.539,5.669 -6.691,6.510 5.150,2.343 5.748,-2.022 10.735,-3.960 11.081,-4.306 z			 m -97.104,6.315 c 0.587,-0.950 -8.324,-3.553 -9.192,-2.684 -0.286,0.286 0.048,1.206 0.744,2.045 1.356,1.634 7.543,2.103 8.448,0.639 z			 m 9.571,-6.297 c 0,-1.568 -6.725,-9.591 -9.640,-11.502 -2.295,-1.504 -2.578,-1.459 -4.991,0.794 -3.019,2.820 -5.790,7.798 -4.860,8.732 0.36,0.361 4.105,1.585 8.323,2.720 7.525,2.024 11.169,1.781 11.169,-0.745 z			 m 82.552,-10.036 c 0.171,-0.171 -0.513,-1.404 -1.522,-2.741 l -1.833,-2.430 -7.810,5.945 c -4.295,3.269 -8.248,6.248 -8.784,6.619 -0.609,0.421 -0.512,1.229 0.258,2.158 1.062,1.280 2.481,0.746 10.306,-3.877 4.990,-2.949 9.214,-5.502 9.385,-5.673 z			 m 20.911,5.792 c 4.930,-1.296 9.103,-2.775 9.273,-3.286 0.472,-1.417 -2.631,-8.286 -3.744,-8.286 -1.359,0 -18.993,7.106 -18.993,7.654 0,1.112 3.128,6.341 3.775,6.310 0.398,-0.019 4.758,-1.095 9.688,-2.391 z			 m -95.997,-0.536 c 2.151,-2.377 2.095,-2.533 -4.954,-13.931 -5.514,-8.915 -7.507,-10.865 -7.515,-7.355 -0.002,0.962 -0.910,3.237 -2.019,5.056 l -2.015,3.306 6.769,7.425 c 3.723,4.084 7.037,7.433 7.364,7.443 0.327,0.01 1.394,-0.865 2.371,-1.944 z			 m -44.466,-0.926 c 0,-0.489 -0.832,-1.917 -1.850,-3.174 l -1.850,-2.285 -3.149,2.242 c -1.732,1.233 -3.149,2.661 -3.149,3.174 0,0.512 2.25,0.931 5,0.931 2.75,0 5,-0.400 5,-0.889 z			 m -11.034,-4.575 c 3.672,-3.741 4.105,-4.570 2.674,-5.119 -1.591,-0.610 -20.640,7.733 -20.640,9.041 0,0.298 3.056,0.543 6.791,0.543 6.720,0 6.837,-0.046 11.173,-4.464 z			 m 115.748,-2.035 c 4.517,-3.3 8.230,-6.492 8.25,-7.095 0.055,-1.704 -3.736,-4.706 -5.224,-4.135 -0.733,0.281 -4.842,3.299 -9.130,6.707 l -7.796,6.195 2.285,2.433 c 1.257,1.338 2.536,2.311 2.843,2.163 0.306,-0.148 4.254,-2.969 8.771,-6.269 z			 m -10.909,-10.871 c 0.188,-2.862 -0.111,-4.628 -0.786,-4.628 -2.412,0 -18.051,4.303 -19.507,5.368 -1.126,0.823 -1.380,2.034 -0.914,4.363 0.551,2.757 1.168,3.310 4.274,3.827 1.996,0.332 4.754,0.958 6.129,1.391 2.006,0.631 3.288,0.147 6.5,-2.453 3.481,-2.820 4.039,-3.841 4.304,-7.869 z			 m 48.643,-1.727 c -0.824,-1.595 -2.005,-2.900 -2.622,-2.900 -1.490,0 -17.579,8.792 -18.339,10.021 -0.326,0.528 0.162,1.977 1.087,3.219 l 1.681,2.258 9.846,-4.849 9.846,-4.849 -1.499,-2.900 z			 m -77.198,10.663 c 2.250,-0.493 2.75,-1.144 2.75,-3.583 0,-3.395 -0.905,-3.566 -6.139,-1.156 -3.152,1.451 -3.525,1.974 -2.788,3.909 0.468,1.228 1.431,2.053 2.139,1.833 0.708,-0.219 2.525,-0.670 4.038,-1.002 z			 m -1.587,-10.196 c 2.991,-1.249 3.337,-1.807 3.337,-5.380 0,-2.192 -0.433,-3.986 -0.962,-3.986 -1.404,0 -11.391,4.001 -12.372,4.956 -0.459,0.447 -0.098,2.238 0.802,3.979 1.753,3.390 2.077,3.405 9.196,0.431 z			 m 67.575,-5.657 c 3.155,-1.765 5.743,-3.461 5.75,-3.769 0.007,-0.307 -0.605,-1.403 -1.360,-2.435 -1.317,-1.801 -1.710,-1.712 -9.75,2.197 -4.607,2.241 -9.252,4.745 -10.321,5.564 -1.864,1.429 -1.873,1.598 -0.206,4.142 l 1.737,2.652 4.206,-2.570 c 2.313,-1.413 6.788,-4.015 9.944,-5.780 z			 m -23.870,1.409 c 4.658,-3.061 3.909,-3.467 -3.367,-1.825 -5.234,1.181 -5.515,1.405 -5.825,4.637 l -0.325,3.396 2.825,-1.833 c 1.554,-1.008 4.566,-2.977 6.693,-4.375 z			 m -24.204,-1.810 10.031,-2.690 -0.643,-4.022 c -0.353,-2.212 -0.836,-4.215 -1.072,-4.451 -0.236,-0.236 -4.985,1.014 -10.553,2.780 -9.295,2.946 -10.075,3.388 -9.538,5.391 0.321,1.200 0.591,2.969 0.598,3.932 0.017,2.186 -0.713,2.248 11.176,-0.940 z			 m -23.663,-5.863 6,-2.272 -0.241,-4.336 c -0.132,-2.385 -0.494,-5.821 -0.804,-7.637 -0.485,-2.845 -0.865,-3.207 -2.758,-2.627 -2.920,0.894 -20.088,7.591 -20.585,8.030 -0.214,0.189 1.210,2.116 3.167,4.282 1.956,2.165 4.079,4.912 4.716,6.103 0.803,1.501 1.672,1.945 2.832,1.447 0.920,-0.395 4.373,-1.740 7.673,-2.990 z			 m 49.826,-0.512 c 5.577,-1.136 10.303,-2.229 10.502,-2.428 0.199,-0.199 0.058,-1.744 -0.312,-3.433 -0.788,-3.590 -2.471,-3.809 -14.974,-1.949 -7.322,1.089 -7.540,1.202 -7.540,3.918 0,2.921 0.866,5.960 1.699,5.960 0.267,0 5.049,-0.929 10.626,-2.066 z			 m -121.057,-4.183 c 0.846,-2.337 1.800,-6.398 2.120,-9.024 0.499,-4.107 3.681,-14.623 6.005,-19.845 0.519,-1.166 -0.401,-2.509 -3.287,-4.795 l -4.008,-3.174 -1.526,2.951 c -3.174,6.139 -6.656,20.633 -6.864,28.574 -0.218,8.338 -0.083,8.573 5.406,9.464 0.337,0.054 1.307,-1.812 2.153,-4.150 z			 m 139.582,1.152 c 3.602,-1.255 3.729,-1.629 1.592,-4.679 -1.502,-2.144 -6.443,-3.178 -6.443,-1.347 0,1.278 1.210,7.125 1.475,7.125 0.124,0 1.642,-0.494 3.375,-1.097 z			 m -46.665,-3.672 c 4.776,-1.501 8.773,-3.079 8.880,-3.507 0.107,-0.427 -0.384,-3.511 -1.093,-6.852 l -1.289,-6.074 -3.863,0.617 c -2.124,0.339 -6.216,1.398 -9.091,2.352 -5.223,1.733 -5.228,1.738 -4.972,5.734 0.386,6.053 1.252,10.502 2.039,10.479 0.387,-0.011 4.613,-1.248 9.389,-2.75 z			 m 25.314,-5.714 c 4.4,-0.794 8.562,-1.461 9.25,-1.480 1.353,-0.037 1.678,-3.834 0.484,-5.655 -0.404,-0.616 -3.434,-2.447 -6.734,-4.068 -5.222,-2.565 -6.627,-2.850 -10.847,-2.197 -2.666,0.412 -5.100,1.003 -5.410,1.312 -0.535,0.535 1.494,11.248 2.431,12.825 0.598,1.008 1.530,0.944 10.827,-0.734 z			 m -103.332,-4.351 c 6.470,-2.108 7.084,-5.218 2.055,-10.413 -1.996,-2.062 -3.904,-3.75 -4.241,-3.75 -0.938,0 -3.630,6.088 -4.423,10.004 -0.389,1.922 -0.951,4.351 -1.248,5.397 -0.440,1.549 -0.195,1.751 1.324,1.092 1.025,-0.444 3.965,-1.493 6.532,-2.329 z			 m 10.832,-1.604 c 0,-0.242 -0.45,-0.719 -1,-1.059 -0.55,-0.339 -1,-0.141 -1,0.440 0,0.582 0.45,1.059 1,1.059 0.55,0 1,-0.198 1,-0.440 z			 m 63.344,-7.688 c 8.415,-2.504 8.699,-2.711 7.617,-5.526 -0.655,-1.705 -2.566,-2.566 -9.145,-4.118 -4.574,-1.079 -8.447,-1.852 -8.607,-1.719 -0.747,0.623 1.182,13.494 2.023,13.494 0.526,0 4.176,-0.958 8.111,-2.129 z			 m -59.385,-36.489 c 9.087,-7.646 7.305,-19.822 -3.504,-23.951 -5.860,-2.238 -10.988,-0.863 -15.361,4.117 -5.357,6.101 -3.771,16.238 3.205,20.493 4.800,2.926 11.746,2.634 15.660,-0.659 z			 m -13.784,-5.695 c -4.864,-5.177 -1.508,-12.685 5.670,-12.685 4.959,0 7.587,2.739 7.444,7.761 -0.192,6.775 -8.460,9.879 -13.115,4.923 z			 m 50.740,5.528 c 4.210,-3.143 6.357,-6.832 6.357,-10.921 0,-8.451 -5.974,-14.282 -14.640,-14.289 -4.305,-0.003 -5.306,0.435 -8.667,3.795 -5.102,5.102 -5.931,9.572 -2.926,15.781 3.788,7.825 13.321,10.527 19.875,5.633 z			 m -13.259,-6.043 c -2.322,-2.566 -2.133,-8.692 0.345,-11.171 2.632,-2.632 7.964,-2.613 10.811,0.039 2.606,2.428 2.904,7.493 0.631,10.738 -2.034,2.903 -9.297,3.146 -11.788,0.393 z			 m 47.360,3.965 c 12.626,-6.751 7.431,-26.148 -7,-26.133 -9.958,0.010 -16.916,11.394 -12.222,19.996 4.031,7.387 12.079,9.956 19.222,6.136 z			 m -11.380,-6.209 c -2.000,-1.573 -2.631,-2.957 -2.619,-5.75 0.017,-4.239 0.641,-5.434 3.668,-7.027 3.195,-1.682 5.708,-1.414 8.680,0.922 2.032,1.598 2.634,2.954 2.634,5.927 0,2.973 -0.602,4.328 -2.634,5.927 -1.449,1.139 -3.638,2.072 -4.865,2.072 -1.226,0 -3.415,-0.932 -4.865,-2.072 z			 m -42.049,-20.391 c 4.444,-2.912 6.576,-7.446 6.098,-12.970 -0.365,-4.227 -1.012,-5.481 -4.516,-8.75 -3.562,-3.323 -4.707,-3.814 -8.879,-3.808 -15.144,0.020 -19.744,19.316 -6.268,26.295 4.025,2.084 9.704,1.763 13.565,-0.766 z			 m -11.190,-4.965 c -2.955,-1.286 -4.350,-3.790 -4.381,-7.865 -0.022,-2.899 4.510,-6.704 7.986,-6.704 3.570,0 8,3.824 8,6.907 0,3.597 -2.219,6.973 -5.287,8.042 -1.656,0.577 -3.056,1.032 -3.112,1.010 -0.055,-0.021 -1.497,-0.647 -3.205,-1.390 z			 m -23.342,2.612 c 6.367,-6.367 6.518,-13.544 0.413,-19.649 -6.082,-6.082 -14.528,-5.643 -20.416,1.062 -2.436,2.775 -3.049,4.381 -3.049,7.988 0,8.918 5.470,14.404 14.367,14.411 4.309,0.003 5.305,-0.434 8.685,-3.813 z			 m -14.878,-4.496 c -2.555,-2.720 -2.826,-7.309 -0.617,-10.463 2.125,-3.035 9.302,-3.140 11.985,-0.176 2.598,2.871 2.298,8.854 -0.559,11.169 -3.134,2.538 -8.156,2.292 -10.807,-0.530 z			 m 86.351,6.298 c 9.481,-5.859 7.888,-20.200 -2.715,-24.443 -9.306,-3.723 -18.809,2.824 -18.809,12.959 0,10.744 12.195,17.250 21.525,11.484 z			 m -13.452,-6.619 c -4.467,-5.679 -1.346,-12.365 5.772,-12.365 4.858,0 7.554,2.741 7.554,7.678 0,6.950 -9.044,10.131 -13.327,4.686 z			 m 49.560,5.004 c 4.061,-1.927 6.045,-4.498 7.432,-9.631 1.358,-5.023 -1.535,-11.834 -6.248,-14.708 -9.747,-5.942 -22.974,2.345 -21.329,13.364 1.476,9.888 11.233,15.203 20.145,10.974 z			 m -10.998,-6.442 c -2.000,-1.573 -2.631,-2.957 -2.619,-5.75 0.017,-4.239 0.641,-5.434 3.668,-7.027 3.195,-1.682 5.708,-1.414 8.680,0.922 2.032,1.598 2.634,2.954 2.634,5.927 0,2.973 -0.602,4.328 -2.634,5.927 -1.449,1.139 -3.638,2.072 -4.865,2.072 -1.226,0 -3.415,-0.932 -4.865,-2.072 z			 m -77.705,-20.678 c 9.845,-5.020 10.469,-17.768 1.173,-23.978 -9.362,-6.254 -21.089,0.384 -21.098,11.945 -0.003,3.880 0.562,5.359 3.191,8.354 5.022,5.720 10.407,6.904 16.733,3.678 z			 m -9.613,-5.255 c -4.915,-1.980 -5.906,-9.596 -1.680,-12.920 2.971,-2.337 5.485,-2.604 8.680,-0.922 3.008,1.583 3.653,2.793 3.653,6.850 0,4.057 -0.645,5.266 -3.653,6.850 -2.531,1.332 -3.973,1.362 -7.000,0.142 z			 m 49.683,2.507 c 6.342,-6.076 6.139,-14.538 -0.489,-20.358 -6.200,-5.443 -13.241,-5.162 -18.911,0.755 -6.384,6.664 -5.091,16.294 2.859,21.298 4.577,2.880 12.626,2.055 16.541,-1.695 z			 m -14.999,-4.500 c -2.614,-2.614 -2.711,-9.046 -0.171,-11.345 2.524,-2.284 9.385,-2.180 11.516,0.173 0.910,1.005 1.654,3.480 1.654,5.5 0,4.777 -2.828,7.671 -7.5,7.671 -2.166,0 -4.261,-0.761 -5.5,-2 z			 m 49.585,3.535 c 4.444,-2.912 6.576,-7.446 6.098,-12.970 -0.365,-4.227 -1.012,-5.481 -4.516,-8.75 -3.529,-3.292 -4.730,-3.815 -8.761,-3.815 -15.153,0 -19.847,19.330 -6.386,26.302 4.025,2.084 9.704,1.763 13.565,-0.766 z			 m -12.186,-5.301 c -1.644,-1.098 -3.399,-4.822 -3.399,-7.214 0,-1.161 1.104,-3.215 2.454,-4.565 3.297,-3.297 7.842,-3.248 11.209,0.118 2.147,2.147 2.474,3.182 1.977,6.246 -0.327,2.020 -1.367,4.237 -2.310,4.926 -1.862,1.361 -8.159,1.671 -9.932,0.487 z			 m -43.640,-18.229 c 4.210,-2.567 7.233,-7.583 7.233,-12.005 0,-1.925 -0.894,-4.966 -1.987,-6.759 -4.992,-8.188 -15.136,-9.575 -21.738,-2.974 -6.601,6.601 -5.213,16.746 2.974,21.738 1.792,1.092 4.834,1.987 6.759,1.987 1.925,0 4.966,-0.894 6.759,-1.987 z			 m -10.443,-4.974 c -1.201,-0.504 -2.664,-1.813 -3.25,-2.908 -4.174,-7.800 5.211,-15.767 12.051,-10.228 2.770,2.243 3.275,9.143 0.847,11.571 -1.932,1.932 -6.869,2.733 -9.648,1.566 z			 m 47.482,3.340 c 3.500,-2.255 6.194,-7.418 6.194,-11.871 0,-14.173 -19.442,-19.022 -26.129,-6.515 -3.822,7.148 -1.248,14.943 6.210,18.809 4.809,2.492 9.420,2.350 13.723,-0.421 z			 m -13.725,-7.006 c -1.139,-1.449 -2.072,-3.638 -2.072,-4.865 0,-1.226 0.932,-3.415 2.072,-4.865 1.598,-2.032 2.954,-2.634 5.927,-2.634 6.193,0 9.730,5.843 6.850,11.315 -1.593,3.027 -2.788,3.651 -7.027,3.668 -2.792,0.011 -4.176,-0.618 -5.75,-2.619 z"/>
			<path style="fill: #000000" d="M 52.376, 343.928 c -2.2,-0.500 -5.286,-1.430 -6.859,-2.066 -2.591,-1.047 -2.811,-1.508 -2.353,-4.927 0.652,-4.862 9.485,-18.441 17.729,-27.254 7.286,-7.788 21.781,-17.801 34.186,-23.614 4.725,-2.214 9.039,-4.026 9.587,-4.026 0.895,0 2.648,3.050 1.983,3.451 -0.150,0.090 -3.198,1.379 -6.773,2.864 -3.575,1.484 -8.075,3.708 -10,4.942 l -3.5,2.242 6.787,0.296 6.787,0.296 6.186,-5.510 6.186,-5.510 2.408,2.214 c 2.656,2.441 7.118,11.195 7.134,13.994 0.005,0.979 -1.179,4.579 -2.632,8 -5.049,11.889 -3.184,21.201 5.027,25.098 4.510,2.140 25.428,3.845 37.614,3.066 13.569,-0.867 33.587,-4.169 38.527,-6.354 10.232,-4.526 15.674,-12.916 13.533,-20.867 -2.990,-11.107 -14.200,-18.223 -28.704,-18.223 -8.594,0 -15.321,2.775 -24.356,10.049 -10.103,8.134 -18.371,12.176 -24.069,11.765 -3.683,-0.265 -4.721,-0.844 -6.647,-3.712 -1.255,-1.868 -2.278,-4.793 -2.272,-6.5 0.012,-4.030 4.001,-12.435 7.377,-15.544 1.458,-1.343 4.077,-4.664 5.819,-7.379 2.750,-4.286 3.165,-5.810 3.148,-11.557 -0.018,-5.992 0.720,-8.060 2.894,-8.104 0.412,-0.008 0.75,0.797 0.75,1.790 0,0.993 1.154,3.355 2.565,5.25 1.410,1.894 5.488,8.279 9.060,14.188 l 6.495,10.744 2.939,-1.520 c 1.616,-0.836 2.939,-1.777 2.939,-2.091 0,-2.648 -9.672,-18.048 -15.579,-24.805 -6.153,-7.038 -7.106,-8.587 -5.898,-9.589 1.158,-0.961 1.492,-5.525 1.709,-23.338 0.229,-18.896 0.488,-22.143 1.768,-22.143 1.278,0 1.539,3.158 1.770,21.349 0.250,19.781 0.397,21.297 2,20.647 0.951,-0.385 2.886,-1.121 4.299,-1.634 l 2.569,-0.932 -0.069,-20.959 -0.069,-20.959 -2.434,-0.005 c -1.338,-0.003 -4.420,-0.966 -6.848,-2.142 -3.675,-1.779 -5.548,-2.041 -11.191,-1.568 -3.965,0.332 -8.378,1.426 -10.636,2.636 -2.122,1.137 -5.032,2.068 -6.465,2.068 -1.433,0 -4.789,0.657 -7.458,1.460 -4.053,1.219 -7.020,1.278 -18.006,0.355 l -13.153,-1.105 -1.194,-4.660 -1.194,-4.660 -8.957,-1.897 c -4.926,-1.044 -8.957,-2.315 -8.957,-2.826 0,-0.510 0.964,-2.489 2.144,-4.398 2.579,-4.173 2.372,-4.373 -7.644,-7.406 -3.85,-1.165 -7.392,-2.476 -7.873,-2.912 -0.480,-0.436 1.094,-1.353 3.5,-2.038 7.718,-2.198 7.542,-2.432 -6.126,-8.145 -2.439,-1.019 -2.403,-1.066 1.5,-1.936 2.2,-0.490 5.8,-1.375 8,-1.966 l 4,-1.074 -6.290,-3.177 -6.290,-3.177 11.507,-2.414 c 6.329,-1.328 11.325,-2.597 11.102,-2.820 -0.223,-0.223 -3.920,-1.217 -8.216,-2.209 l -7.811,-1.804 5.125,-0.090 c 2.818,-0.049 6.597,-0.385 8.397,-0.745 l 3.272,-0.654 -5.812,-2.617 -5.812,-2.617 9.414,-2.908 9.414,-2.908 -5.5,-0.898 c -9.532,-1.556 -10.109,-2.265 -2.952,-3.626 10.806,-2.054 10.983,-2.202 4.921,-4.094 l -5.469,-1.707 6.25,-1.285 c 3.437,-0.707 6.25,-1.644 6.25,-2.083 0,-0.438 -1.185,-1.729 -2.634,-2.869 l -2.634,-2.072 2.553,0 c 5.836,0 6.233,-1.257 1.133,-3.587 l -4.916,-2.245 6.5,-0.116 c 6.279,-0.112 6.430,-0.174 4.445,-1.833 -1.129,-0.944 -3.154,-2.467 -4.5,-3.384 -2.414,-1.646 -2.394,-1.656 1.554,-0.773 5.760,1.287 7.405,1.096 4.5,-0.521 -2.668,-1.486 -2.390,-1.731 3.407,-3.011 2.87,-0.633 2.825,-0.692 -3.5,-4.582 -7.115,-4.376 -7.010,-4.539 1.592,-2.462 9.651,2.330 10.086,2.205 7.407,-2.129 l -2.255,-3.649 4.674,0.526 c 2.570,0.289 4.674,0.325 4.674,0.079 0,-0.245 -1.358,-2.421 -3.019,-4.835 l -3.019,-4.388 4.769,1.447 c 6.285,1.907 6.413,1.880 5.085,-1.035 -1.483,-3.255 -0.875,-3.721 2.961,-2.273 1.730,0.653 3.349,0.982 3.597,0.732 0.248,-0.250 0.079,-2.479 -0.375,-4.954 -0.454,-2.475 -0.699,-4.628 -0.543,-4.786 0.155,-0.157 2.577,0.617 5.382,1.723 l 5.099,2.009 0.659,-4.973 c 0.362,-2.735 0.858,-4.973 1.100,-4.973 0.242,0 2.410,1.355 4.818,3.011 l 4.377,3.011 0.302,-5.261 0.302,-5.261 3.657,5.349 3.657,5.349 0.937,-5.349 0.937,-5.349 2.494,5.425 2.494,5.425 0.648,-3.925 c 0.356,-2.159 0.682,-5.275 0.724,-6.925 0.067,-2.669 0.303,-2.421 2.144,2.25 1.137,2.887 2.413,5.25 2.835,5.25 0.421,0 1.334,-2.362 2.029,-5.25 l 1.262,-5.25 1.449,4.337 c 1.642,4.914 2.156,4.663 4.724,-2.304 l 1.830,-4.967 1.827,5.377 c 1.005,2.957 2.036,5.586 2.291,5.841 0.254,0.254 1.241,-1.167 2.191,-3.160 0.950,-1.993 1.982,-3.620 2.292,-3.616 0.310,0.004 1.649,1.600 2.976,3.547 2.584,3.794 3.986,3.267 4.134,-1.554 0.050,-1.659 0.667,-0.651 1.834,3 l 1.757,5.5 3.086,-6 c 3.414,-6.635 3.502,-6.561 4.714,3.920 0.312,2.706 0.800,5.152 1.082,5.435 0.282,0.282 2.305,-1.235 4.495,-3.373 l 3.981,-3.887 0,5.702 c 0,3.136 0.239,5.702 0.532,5.702 0.292,0 2.205,-0.714 4.25,-1.587 9.027,-3.853 8.580,-4.074 5.220,2.582 -1.651,3.271 -3.002,6.193 -3.002,6.492 0,0.299 2.294,-0.617 5.099,-2.038 2.804,-1.421 5.295,-2.388 5.534,-2.148 0.239,0.239 -0.019,2.407 -0.574,4.817 -1.609,6.982 -1.507,7.151 2.940,4.881 4.354,-2.221 4.352,-2.223 3.081,3.25 -0.799,3.441 -0.694,3.748 1.273,3.726 1.179,-0.013 3.944,-0.435 6.144,-0.938 l 4,-0.914 -4.5,3.992 -4.5,3.992 6.75,-0.351 c 3.712,-0.193 6.75,-0.295 6.75,-0.227 0,0.068 -2.754,2.114 -6.121,4.547 l -6.121,4.423 5.661,1 5.661,1 -5.040,4.962 c -2.772,2.729 -5.040,5.316 -5.040,5.75 0,0.433 1.462,0.832 3.25,0.887 1.787,0.054 4.358,0.408 5.713,0.786 2.453,0.684 2.448,0.697 -1.356,3.599 -3.350,2.555 -3.591,3.002 -1.963,3.643 1.020,0.401 4.181,0.761 7.024,0.800 8.612,0.117 9.045,0.807 3.230,5.145 -2.832,2.113 -5.431,4.145 -5.774,4.515 -0.343,0.370 3.425,0.455 8.375,0.189 l 9,-0.483 -8.75,4.086 c -4.812,2.247 -8.75,4.363 -8.75,4.702 0,0.338 4.387,1.040 9.75,1.560 l 9.75,0.943 -6.907,3.373 -6.907,3.373 2.907,2.326 c 1.599,1.279 3.357,2.335 3.907,2.347 2.149,0.043 -2.144,1.959 -4.424,1.974 l -2.424,0.015 2.025,2.25 c 3.915,4.349 3.745,4.649 -2.278,4.027 -5.480,-0.565 -5.601,-0.525 -4.509,1.514 0.617,1.152 1.569,2.372 2.116,2.710 2.095,1.295 0.778,2.258 -5.361,3.920 l -6.355,1.720 1.852,9.029 c 1.018,4.966 1.602,9.433 1.296,9.927 -0.305,0.494 -2.992,0.898 -5.971,0.898 -5.400,0 -5.413,0.007 -4.440,2.565 0.536,1.410 0.975,2.722 0.975,2.914 0,0.192 -3.337,0.662 -7.415,1.044 -6.134,0.574 -8.509,0.332 -13.75,-1.403 -14.712,-4.873 -34.773,-7.646 -36.389,-5.031 -0.370,0.599 -2.534,1.917 -4.809,2.929 -2.274,1.011 -3.573,1.871 -2.885,1.910 0.954,0.054 1.25,4.674 1.25,19.570 0,10.725 0.305,19.5 0.679,19.5 0.373,0 2.060,-0.499 3.75,-1.109 l 3.071,-1.109 0,-19.140 c 0,-16.347 0.218,-19.140 1.5,-19.140 1.166,0 1.611,1.777 2,8 0.459,7.357 0.680,8.025 2.75,8.319 2.171,0.308 2.25,0.042 2.25,-7.643 0,-5.908 0.361,-8.101 1.402,-8.500 2.279,-0.874 2.597,0.229 2.597,9.022 0,5.819 0.380,8.481 1.25,8.749 0.687,0.211 2.487,0.656 4,0.987 l 2.75,0.602 0,-10.019 c 0,-9.352 0.133,-10.019 2,-10.019 1.873,0 2,0.666 2,10.524 0,10.377 0.035,10.538 2.565,11.5 1.410,0.536 2.968,0.975 3.462,0.975 0.493,0 1.026,-4.162 1.184,-9.25 0.230,-7.427 0.583,-9.25 1.787,-9.25 1.216,0 1.553,1.922 1.784,10.164 l 0.284,10.164 3.115,1.085 c 1.713,0.597 3.255,1.085 3.427,1.085 0.171,0 0.441,-3.932 0.600,-8.738 0.251,-7.613 0.529,-8.784 2.159,-9.096 1.747,-0.334 1.843,0.300 1.468,9.637 l -0.401,9.995 5.199,2.550 5.199,2.550 4.228,-5.600 c 10.145,-13.437 24.145,-26.021 36.434,-32.748 l 5,-2.736 -5,4.317 c -14.811,12.788 -32.946,32.659 -35.224,38.594 -0.439,1.146 7.211,9.127 8.853,9.234 0.345,0.022 3.216,-3.397 6.379,-7.599 7.429,-9.870 11.570,-14.416 17.873,-19.618 5.187,-4.281 5.027,-3.807 -1.433,4.259 -5.262,6.569 -9.394,12.855 -13.855,21.075 l -3.945,7.271 4.447,6.232 c 8.290,11.617 15.414,28.226 19.380,45.181 2.074,8.867 2.720,8.597 -18.743,7.856 -10.301,-0.355 -22.827,-0.913 -27.834,-1.240 l -9.103,-0.593 -0.568,4.235 c -1.236,9.222 -14.615,17.720 -32.224,20.469 -5.5,0.858 -11.442,1.791 -13.204,2.072 -4.728,0.754 -32.332,0.653 -40.468,-0.147 -5.671,-0.558 -8.024,-1.355 -12.099,-4.097 l -5.058,-3.403 -10.584,3.950 c -19.350,7.222 -39.747,9.947 -52.584,7.025 z			 m 18.266,-8.294 c 1.778,-2.973 3.233,-5.560 3.233,-5.75 -1.4e-4,-0.189 -4.886,-0.413 -10.859,-0.499 l -10.859,-0.156 -1.640,3.440 c -0.902,1.892 -1.640,3.842 -1.640,4.334 0,0.857 7.196,2.665 13.5,3.392 1.65,0.190 3.457,0.413 4.016,0.495 0.559,0.082 2.471,-2.282 4.25,-5.256 z			 m 15.067,2.438 c 6.617,-1.698 21.280,-6.429 26.268,-8.475 1.065,-0.437 1.445,-1.476 1.133,-3.106 -0.581,-3.039 -1.508,-3.046 -18.575,-0.134 l -12.840,2.190 -3.383,5.746 c -3.928,6.672 -3.910,6.681 7.397,3.778 z			 m -8.327,-13.797 c 0.983,-0.718 5.407,-6.500 6.874,-8.984 0.572,-0.968 -1.719,-1.25 -10.187,-1.25 l -10.925,0 -3.678,4.721 c -3.285,4.217 -3.486,4.796 -1.883,5.429 2.397,0.946 18.526,1.014 19.800,0.083 z			 m 23.155,-2.804 c 9.255,-1.360 11.244,-1.959 11.649,-3.508 0.636,-2.435 -2.984,-3.132 -14.155,-2.725 l -8.345,0.304 -2.537,4.302 -2.537,4.302 2.382,-0.516 c 1.310,-0.284 7.404,-1.255 13.543,-2.157 z			 m 14.558,-14.168 c 0.937,-2.606 1.383,-5.035 0.992,-5.399 -0.391,-0.363 -3.885,-0.968 -7.764,-1.343 l -7.052,-0.682 -3.697,4.745 c -2.033,2.610 -3.697,5.099 -3.697,5.531 0,0.711 4.067,1.156 15.507,1.696 3.924,0.185 4.043,0.090 5.711,-4.549 z			 m 128.765,2.488 c -0.038,-3.118 -1.473,-3.448 -7.484,-1.721 -5.873,1.687 -5.926,1.733 -2.5,2.187 7.053,0.935 10.000,0.797 9.984,-0.465 z			 m 25.177,-3.25 c -0.185,-2.2 -0.731,-4.411 -1.213,-4.913 -0.937,-0.978 -17.851,1.939 -19.246,3.319 -0.438,0.434 -0.247,1.998 0.426,3.475 1.218,2.674 1.264,2.685 10.797,2.402 l 9.573,-0.284 -0.337,-4 z			 m -176.874,-0.940 c 2.041,-2.442 3.711,-4.737 3.711,-5.099 0,-0.362 -3.950,-0.501 -8.778,-0.309 -8.547,0.340 -8.907,0.454 -13.669,4.349 l -4.891,4 6.419,0.577 c 13.691,1.231 13.144,1.343 17.208,-3.517 z			 m 138.711,0.182 c 4.675,-1.685 8.859,-3.373 9.297,-3.751 1.066,-0.917 -1.302,-5.990 -2.797,-5.990 -2.380,0 -17.982,10.552 -18.339,12.403 -0.286,1.489 0.027,1.731 1.487,1.145 1.018,-0.408 5.676,-2.121 10.351,-3.807 z			 m -87.577,2.382 c 0.617,-0.999 -8.166,-3.714 -9.075,-2.806 -0.327,0.327 -0.328,1.289 -0.003,2.137 0.646,1.684 8.110,2.233 9.077,0.668 z			 m 8.937,-4.597 c 1.807,-1.368 1.802,-1.488 -0.168,-4.218 -1.115,-1.545 -4.094,-4.819 -6.619,-7.276 l -4.590,-4.466 -3.241,3.894 c -5.229,6.283 -6.065,9.503 -2.491,9.600 1.237,0.033 4.725,0.887 7.75,1.897 6.830,2.280 7.080,2.295 9.360,0.568 z			 m 73.788,-5.667 c 4.898,-2.827 9.116,-5.480 9.373,-5.895 0.256,-0.415 -0.375,-1.795 -1.404,-3.066 l -1.871,-2.310 -5.373,3.737 c -9.519,6.620 -12.045,9.063 -11.323,10.946 0.365,0.951 0.895,1.729 1.177,1.729 0.282,0 4.522,-2.313 9.420,-5.140 z			 m -63.148,-2.392 c 0,-0.439 -10.534,-17.941 -12.475,-20.726 -1.086,-1.559 -1.568,-1.068 -4.233,4.307 l -3.007,6.067 3.362,2.564 c 1.849,1.410 4.975,4.761 6.946,7.447 l 3.584,4.882 2.911,-2.072 c 1.601,-1.140 2.911,-2.251 2.911,-2.469 z			 m 94.011,2.100 c 6.085,-1.559 9.379,-2.872 9.185,-3.658 -0.840,-3.402 -3.221,-7.908 -4.178,-7.908 -1.511,0 -17.320,6.070 -18.413,7.070 -1.135,1.039 1.225,6.929 2.777,6.929 0.627,0 5.410,-1.094 10.628,-2.432 z			 M 114.909,293.592 c -1.207,-1.953 -2.368,-3.552 -2.579,-3.552 -0.211,0 -2.054,1.462 -4.096,3.25 l -3.712,3.25 5.928,0.5 c 3.260,0.275 6.091,0.411 6.292,0.302 0.200,-0.108 -0.623,-1.796 -1.831,-3.75 z			 m 106.073,-4.131 8.836,-6.579 -2.159,-2.920 c -1.187,-1.606 -2.369,-2.920 -2.626,-2.920 -0.575,0 -5.807,3.876 -13.376,9.911 l -5.719,4.560 2.719,2.227 c 1.495,1.225 2.893,2.243 3.105,2.263 0.211,0.019 4.361,-2.924 9.221,-6.543 z			 m -14.856,-2.961 c 3.258,-3.029 3.75,-4.074 3.75,-7.972 0,-3.613 -0.342,-4.486 -1.757,-4.486 -1.974,0 -19.184,4.608 -19.906,5.330 -0.255,0.255 -0.166,2.056 0.198,4.001 0.633,3.377 0.940,3.601 6.814,4.985 3.383,0.796 6.375,1.488 6.650,1.538 0.275,0.049 2.187,-1.479 4.25,-3.396 z			 m 53.75,-7.018 c 0,-0.297 -0.686,-1.867 -1.524,-3.489 l -1.524,-2.948 -8.199,4.122 c -4.509,2.267 -9.206,4.782 -10.437,5.589 l -2.238,1.466 2.104,2.847 2.104,2.847 9.857,-4.946 c 5.421,-2.720 9.857,-5.190 9.857,-5.487 z			 m -76.177,4.670 c 0.302,-3.153 0.163,-3.325 -2.205,-2.730 -3.955,0.992 -7.616,2.511 -7.616,3.159 0,0.324 0.429,1.393 0.954,2.374 0.760,1.421 1.727,1.659 4.75,1.172 3.431,-0.552 3.826,-0.933 4.117,-3.976 z			 m -5.707,-5.846 c 4.811,-1.708 4.884,-1.798 4.884,-6 0,-2.345 -0.337,-4.269 -0.75,-4.275 -1.881,-0.025 -13.25,4.474 -13.25,5.244 0,1.275 2.954,6.765 3.641,6.765 0.324,0 2.788,-0.780 5.474,-1.734 z			 m 65.685,-4.265 c 5.058,-3.025 9.198,-6.007 9.198,-6.627 3.6e-4,-0.620 -0.704,-1.712 -1.565,-2.427 -1.322,-1.097 -3.126,-0.533 -11.592,3.627 -5.514,2.710 -10.256,5.298 -10.538,5.751 -0.564,0.908 3.715,5.876 4.691,5.445 0.335,-0.148 4.748,-2.744 9.806,-5.769 z			 m -22.030,0.5 c 7.123,-4.778 6.881,-5.166 -2.103,-3.361 -5.539,1.112 -5.666,1.213 -5.666,4.5 0,1.849 0.239,3.361 0.531,3.361 0.292,0 3.549,-2.025 7.239,-4.5 z			 m -13.086,-9.819 c -0.283,-2.114 -0.769,-4.098 -1.079,-4.408 -0.682,-0.682 -19.516,4.776 -20.179,5.849 -0.257,0.416 -0.189,2.500 0.150,4.629 l 0.619,3.871 10.502,-3.048 10.502,-3.048 -0.515,-3.845 z			 m -34.667,1.421 7.483,-2.898 -0.255,-5.352 c -0.412,-8.644 -0.956,-10.075 -3.527,-9.280 -5.061,1.564 -18.318,6.530 -19.612,7.346 -1.102,0.695 -0.389,2.161 3.397,6.981 2.636,3.355 4.846,6.100 4.911,6.100 0.065,0 3.486,-1.304 7.602,-2.898 z			 m 51.554,-1.116 c 5.385,-1.108 9.977,-2.200 10.205,-2.428 0.227,-0.227 0.110,-1.796 -0.260,-3.485 -0.788,-3.590 -2.471,-3.809 -14.974,-1.949 -7.322,1.089 -7.540,1.202 -7.540,3.918 0,3.290 0.894,5.960 1.996,5.960 0.430,0 5.189,-0.906 10.574,-2.014 z			 m 19.579,-3.563 3.051,-1.577 -2.275,-2.422 c -2.176,-2.317 -6.926,-3.378 -6.926,-1.547 0,2.616 1.375,7.125 2.174,7.125 0.508,0 2.297,-0.710 3.976,-1.577 z			 m -47.838,-3.044 c 5.053,-1.442 9.325,-2.742 9.494,-2.889 0.336,-0.293 -2.725,-12.549 -3.412,-13.660 -0.351,-0.568 -7.744,1.112 -16.667,3.790 -1.506,0.452 -1.686,1.313 -1.189,5.707 0.766,6.779 1.378,9.674 2.044,9.674 0.298,0 4.677,-1.180 9.730,-2.622 z			 m 30.264,-6.695 6.076,-1.182 -0.843,-3.207 c -0.698,-2.656 -1.914,-3.717 -7.076,-6.174 -5.617,-2.674 -6.717,-2.875 -11.150,-2.041 -2.704,0.508 -5.120,1.127 -5.368,1.375 -0.247,0.247 0.143,3.437 0.869,7.088 l 1.319,6.638 5.048,-0.657 c 2.776,-0.361 7.782,-1.189 11.124,-1.840 z			 M 193.674,238.818 c 7.964,-2.174 8.272,-2.366 7.668,-4.769 -0.345,-1.377 -0.704,-2.564 -0.797,-2.638 -0.524,-0.416 -17.225,-4.057 -17.506,-3.817 -0.592,0.508 1.044,13.446 1.704,13.468 0.348,0.012 4.367,-0.997 8.930,-2.243 z			 m -59.695,-36.060 c 6.925,-4.652 7.662,-15.152 1.497,-21.317 -4.253,-4.253 -9.216,-5.200 -15.227,-2.904 -5.901,2.253 -8.363,6.187 -8.368,13.371 -0.003,4.904 0.331,5.702 3.878,9.25 3.563,3.563 4.331,3.882 9.352,3.882 4.036,0 6.360,-0.598 8.867,-2.282 z			 m -13.647,-6.171 c -2.999,-2.999 -3.131,-6.415 -0.381,-9.910 3.455,-4.393 10.254,-3.465 12.423,1.694 3.396,8.078 -5.862,14.395 -12.041,8.215 z			 m 48.999,7.038 c 9.066,-3.788 10.715,-16.715 2.996,-23.492 -2.974,-2.611 -4.330,-3.090 -8.736,-3.087 -6.490,0.005 -10.747,2.436 -13.158,7.517 -3.337,7.032 -0.516,15.142 6.514,18.727 4.155,2.119 7.872,2.219 12.383,0.335 z			 m -11.454,-7.583 c -2.785,-2.785 -2.632,-8.057 0.314,-10.825 6.839,-6.425 17.043,3.770 10.646,10.637 -2.648,2.842 -8.211,2.938 -10.961,0.188 z			 m 47.695,4.044 c 4.638,-2.828 6.688,-6.520 6.688,-12.044 0,-8.847 -6.121,-14.389 -15.156,-13.721 -17.873,1.321 -16.662,27.714 1.272,27.714 2.204,0 5.434,-0.874 7.195,-1.948 z			 m -9.695,-4.732 c -5.717,-2.181 -6.981,-9.607 -2.265,-13.316 4.973,-3.911 12.265,-0.341 12.265,6.005 0,4.941 -5.559,9.005 -10,7.311 z			 m -44.922,-21.475 c 9.167,-5.152 9.176,-19.550 0.016,-24.287 -9.849,-5.093 -21.090,1.544 -21.083,12.451 0.007,10.944 11.332,17.307 21.067,11.836 z			 m -13.042,-7.518 c -5.659,-7.195 4.086,-16.511 10.764,-10.290 5.436,5.064 2.896,12.218 -4.535,12.774 -3.413,0.255 -4.375,-0.128 -6.228,-2.484 z			 m -22.225,6.656 c 8.064,-4.916 7.903,-18.184 -0.286,-23.550 -3.882,-2.543 -9.708,-2.904 -14.002,-0.866 -5.126,2.432 -7.512,6.658 -7.517,13.310 -0.003,4.904 0.331,5.702 3.878,9.25 3.547,3.547 4.345,3.882 9.25,3.878 3.618,-0.003 6.446,-0.661 8.677,-2.021 z			 m -13.355,-6.428 c -4.830,-4.830 -1.602,-12.545 5.249,-12.545 6.996,0 10.225,8.193 5.107,12.961 -2.981,2.777 -7.338,2.602 -10.356,-0.415 z			 m 86.246,6.495 c 10.582,-6.452 7.068,-23.304 -5.346,-25.633 -5.109,-0.958 -11.771,1.912 -14.434,6.220 -1.746,2.825 -2.069,4.563 -1.693,9.097 0.405,4.886 0.930,6.031 4.104,8.939 3.163,2.898 4.328,3.334 8.904,3.331 3.456,-0.002 6.364,-0.674 8.466,-1.955 z			 m -13.246,-6.495 c -2.999,-2.999 -3.131,-6.415 -0.381,-9.910 3.653,-4.644 11.895,-2.883 13.334,2.850 0.730,2.912 -1.510,7.956 -3.951,8.893 -3.250,1.247 -6.602,0.564 -9.000,-1.833 z			 m 50.241,4.498 c 4.638,-2.828 6.688,-6.520 6.688,-12.044 0,-8.847 -6.121,-14.389 -15.156,-13.721 -17.873,1.321 -16.662,27.714 1.272,27.714 2.204,0 5.434,-0.874 7.195,-1.948 z			 m -10.380,-5.029 c -4.919,-2.030 -5.904,-9.619 -1.680,-12.941 3.495,-2.749 6.910,-2.617 9.910,0.381 6.005,6.005 -0.405,15.789 -8.230,12.56 z			 m -76.270,-23.557 c 4.051,-3.882 5.621,-9.290 4.136,-14.248 -1.796,-5.995 -6.133,-9.466 -12.408,-9.930 -9.125,-0.674 -14.995,4.689 -14.926,13.640 0.070,9.084 5.894,14.470 14.926,13.803 4.130,-0.305 5.922,-1.012 8.272,-3.264 z			 m -12.544,-3.587 c -5.112,-2.858 -6.030,-8.429 -2.045,-12.414 4.867,-4.867 12.545,-1.524 12.545,5.463 0,5.720 -5.815,9.570 -10.5,6.951 z			 m 48.134,4.211 c 3.985,-2.430 6.883,-9.502 5.944,-14.508 -1.402,-7.476 -9.207,-12.615 -16.953,-11.162 -11.484,2.154 -15.068,16.603 -6.077,24.498 2.974,2.611 4.330,3.090 8.736,3.087 3.369,-0.002 6.324,-0.680 8.350,-1.915 z			 m -13.000,-6.153 c -5.528,-4.349 -2.300,-12.927 4.865,-12.927 4.566,0 7.5,2.905 7.5,7.427 0,3.875 -3.661,7.572 -7.5,7.572 -1.226,0 -3.415,-0.932 -4.865,-2.072 z			 m 47.948,4.466 c 9.588,-4.550 9.905,-19.986 0.510,-24.844 -6.878,-3.557 -16.319,-0.880 -19.656,5.572 -2.319,4.485 -1.501,12.101 1.669,15.538 4.770,5.171 11.442,6.597 17.476,3.733 z			 m -12.547,-8.075 c -5.640,-7.170 4.512,-16.769 10.939,-10.343 5.220,5.220 2.628,12.278 -4.711,12.827 -3.413,0.255 -4.375,-0.128 -6.228,-2.484 z			 m -42.318,-15.987 c 12.800,-6.074 7.696,-26.330 -6.634,-26.330 -8.419,0 -14.074,5.624 -14.074,14 0,10.808 10.607,17.123 20.709,12.330 z			 m -11.793,-7.253 c -3.180,-3.180 -3.507,-4.699 -1.812,-8.419 1.117,-2.452 4.674,-4.657 7.513,-4.657 2.279,0 7.376,5.527 7.376,8 0,2.783 -5.216,8 -8,8 -1.184,0 -3.469,-1.315 -5.076,-2.923 z			 m 46.405,6.559 c 1.795,-0.750 4.528,-2.866 6.073,-4.702 2.530,-3.006 2.766,-3.918 2.386,-9.184 -0.351,-4.865 -0.929,-6.352 -3.443,-8.866 -9.209,-9.209 -24.344,-3.052 -24.344,9.903 0,4.914 3.345,10.113 8.019,12.462 4.190,2.105 6.970,2.200 11.308,0.387 z			 m -10.418,-7.507 c -1.672,-1.354 -2.310,-2.909 -2.310,-5.628 0,-6.980 7.922,-10.068 12.945,-5.045 2.999,2.999 3.131,6.415 0.381,9.910 -2.521,3.206 -7.568,3.555 -11.016,0.763 z			"/>
		</symbol>
	</defs>
	<use xlink:href="#s1"/>
</svg>
