<?xml version="1.0" encoding="UTF-8" standalone="no"?>
<svg xmlns="http://www.w3.org/2000/svg" xmlns:xlink="http://www.w3.org/1999/xlink" version="1.1">
	<defs>
	   <filter id="inset-shadow">
	    	<feOffset dx="0" dy="0"/>
	     	<feGaussianBlur stdDeviation="8" result="offset-blur"/>
	     	<feComposite operator="out" in="SourceGraphic" in2="offset-blur" result="inverse"/>
	     	<feFlood flood-color="black" flood-opacity="1" result="color"/>
	     	<feComposite operator="in" in="color" in2="inverse" result="shadow"/>
	     	<feComposite operator="over" in="shadow" in2="SourceGraphic"/>
	    </filter>
		<symbol id="tile" viewBox="0 0 320 446">
			<rect x="0" y="0" width="320" height="446" rx="30" ry="30" style="fill: #ffffff" filter="url(#inset-shadow)"/>
		</symbol>
		<g id="pin_p1">
			<path style="fill: #0f1938" d="M 0,0 c -9.054,-1.266 -14.001,-2.766 -22.888,-6.942 -19.369,-9.102 -33.565,-25.220 -40.128,-45.563 -3.369,-10.444 -4.262,-26.732 -2.038,-37.178 6.176,-29.000 27.042,-51.068 55.724,-58.934 8.891,-2.438 29.021,-2.502 37.942,-0.120 3.575,0.954 10.758,3.826 15.962,6.383 7.939,3.899 10.933,6.112 18.603,13.748 13.529,13.470 20.541,27.719 22.349,45.413 3.894,38.116 -21.063,73.133 -58.201,81.659 -8.386,1.925 -19.902,2.572 -27.325,1.533 z			m 27.347,-10.595 c 22.736,-5.867 40.914,-23.738 47.193,-46.397 2.547,-9.192 2.814,-25.656 0.560,-34.552 -2.343,-9.251 -8.738,-21.292 -14.952,-28.157 -31.654,-34.966 -89.339,-27.366 -110.470,14.553 -17.404,34.526 -1.538,76.847 34.432,91.848 4.399,1.834 10.165,3.304 18.5,4.716 4.266,0.722 18.686,-0.449 24.735,-2.010 z			m -32.664,-7.950 c -21.265,-5.914 -38.103,-23.698 -42.567,-44.959 -1.890,-9.002 -1.872,-13.801 0.085,-23.277 5.272,-25.527 25.614,-43.639 52.524,-46.766 6.577,-0.764 17.770,0.782 25.616,3.540 17.568,6.174 32.482,23.015 36.853,41.616 2.142,9.116 1.438,23.511 -1.571,32.109 -5.799,16.569 -19.487,30.216 -36.580,36.471 -7.762,2.840 -26.250,3.521 -34.360,1.265 z			m 42.079,-11.201 c 5.888,-3.465 8.745,-11.193 6.811,-18.424 -2.088,-7.808 -11.730,-14.833 -20.360,-14.833 -4.189,0 -4.096,2.416 0.321,8.397 5.444,7.370 6.761,10.317 5.272,11.806 -1.784,1.783 -4.472,-1.275 -8.169,-9.295 -2.688,-5.833 -3.598,-6.968 -5.381,-6.713 -6.122,0.872 -6.022,19.217 0.142,26.160 4.883,5.499 14.688,6.831 21.363,2.903 z			m -38.221,0.278 c 6.994,-3.617 10.746,-11.964 9.578,-21.312 -0.626,-5.012 -3.090,-9.223 -5.397,-9.223 -0.488,0 -2.442,3.271 -4.341,7.270 -3.632,7.648 -6.315,11.128 -7.850,10.180 -1.921,-1.187 -0.751,-4.375 4.184,-11.403 4.676,-6.658 4.969,-7.401 3.505,-8.865 -1.384,-1.384 -2.233,-1.432 -6.353,-0.358 -10.837,2.825 -17.779,11.217 -16.960,20.502 0.75,8.499 7.442,14.675 15.902,14.675 2.696,0 6.175,-0.658 7.733,-1.464 z			m 56.568,-31.438 c 4.817,-2.744 7.655,-8.606 7.206,-14.888 -0.628,-8.808 -6.124,-14.246 -15.153,-14.995 -4.561,-0.378 -6.491,0.011 -11.017,2.226 -6.071,2.970 -9.535,6.640 -9.535,10.101 0,2.246 0.108,2.264 9.976,1.721 8.750,-0.482 10.055,-0.342 10.623,1.137 0.356,0.927 0.325,2.005 -0.068,2.394 -0.824,0.814 -14.722,0.626 -18.199,-0.245 -3.770,-0.946 -3.184,4.254 0.917,8.136 7.594,7.188 17.376,8.898 25.249,4.413 z			m -74.376,0.885 c 5.016,-1.393 13.072,-8.613 12.679,-11.363 -0.287,-2.012 -0.777,-2.104 -9.802,-1.824 -10.608,0.328 -13.914,-0.736 -10.5,-3.382 1.627,-1.261 3.629,-1.424 10.740,-0.875 7.521,0.580 8.827,0.449 9.36,-0.938 0.907,-2.363 -2.093,-6.319 -7.294,-9.618 -8.649,-5.485 -18.568,-4.860 -24.172,1.521 -12.044,13.717 0.742,31.550 18.989,26.481 z			m 37.877,-2.232 c 11.968,-8.169 7.259,-26.924 -7.136,-28.424 -5.677,-0.591 -12.540,2.819 -15.283,7.596 -4.060,7.069 -1.779,16.670 5.024,21.156 4.232,2.790 13.071,2.623 17.395,-0.328 z			m -13.112,-5.209 c -3.231,-1.806 -5.223,-6.358 -4.333,-9.902 0.878,-3.500 4.970,-6.637 8.657,-6.637 4.012,0 8.788,4.819 8.788,8.867 0,6.326 -7.582,10.764 -13.111,7.673 z			m -6.915,-21.007 c 0.994,-1.198 0.286,-2.858 -3.877,-9.083 -5.243,-7.838 -5.942,-9.807 -3.929,-11.051 1.64,-1.013 5.307,3.906 8.493,11.394 1.872,4.400 3.102,6.129 4.090,5.75 0.777,-0.298 1.768,-0.542 2.201,-0.542 1.516,0 3.294,-9.013 2.846,-14.422 -0.844,-10.185 -7.495,-16.577 -17.248,-16.577 -14.552,0 -21.262,16.284 -11.358,27.564 5.678,6.467 16.014,10.303 18.781,6.969 z			m 33.535,-0.884 c 6.099,-2.840 11.162,-8.372 12.065,-13.183 2.396,-12.775 -7.279,-22.431 -20.072,-20.031 -5.304,0.995 -10.934,7.040 -12.453,13.370 -1.569,6.543 0.07,15.652 3.110,17.279 2.514,1.345 2.503,1.358 7.342,-7.917 2.956,-5.666 4.521,-7.666 6.000,-7.666 2.990,0 2.047,2.915 -3.546,10.956 -3.621,5.206 -4.576,7.292 -3.777,8.255 1.602,1.931 5.733,1.543 11.331,-1.063 z"/>
		</g>
		<symbol id="p2" viewBox="0 0 320 446">
			<use xlink:href="#tile"/>
			<g transform="translate(149.372,200.202)">
				<use xlink:href="#pin_p1"/>
			</g>
			<g transform="translate(149.716,396.176)">
				<use xlink:href="#pin_p1"/>
			</g>
		</symbol>
	</defs>
	<use xlink:href="#p2"/>
</svg>
