<?xml version="1.0" encoding="UTF-8" standalone="no"?>
<svg xmlns="http://www.w3.org/2000/svg" xmlns:xlink="http://www.w3.org/1999/xlink" version="1.1">
	<defs>
	   <filter id="inset-shadow">
	    	<feOffset dx="0" dy="0"/>
	     	<feGaussianBlur stdDeviation="8" result="offset-blur"/>
	     	<feComposite operator="out" in="SourceGraphic" in2="offset-blur" result="inverse"/>
	     	<feFlood flood-color="black" flood-opacity="1" result="color"/>
	     	<feComposite operator="in" in="color" in2="inverse" result="shadow"/>
	     	<feComposite operator="over" in="shadow" in2="SourceGraphic"/>
	    </filter>
		<symbol id="tile" viewBox="0 0 320 446">
			<rect x="0" y="0" width="320" height="446" rx="30" ry="30" style="fill: #ffffff" filter="url(#inset-shadow)"/>
		</symbol>
		<g id="sou_p1">
			<path d="M 0,0 c -3.585,-1.842 -6.172,-5.887 -6.811,-10.648 -0.563,-4.203 -0.502,-4.304 7.073,-11.734 l 7.641,-7.494 0,-12.843 0,-12.843 -4.918,-3.610 c -6.786,-4.982 -10.863,-9.880 -11.631,-13.979 -0.933,-4.975 2.995,-12.898 9.908,-19.978 l 5.642,-5.779 0,-11.008 0,-11.008 -6.367,-6.652 c -9.602,-10.032 -10.684,-13.313 -5.882,-17.841 7.459,-7.033 25.837,-12.070 37.839,-10.370 9.208,1.304 18.149,4.551 23.660,8.593 7.568,5.551 6.584,10.054 -4.5,20.602 l -4.75,4.519 0,11.787 0,11.787 5.370,5.801 c 6.909,7.463 10.047,13.808 9.361,18.927 -0.661,4.932 -3.429,8.583 -10.241,13.508 l -5.490,3.969 0,13.720 0,13.720 5.031,4.242 c 8.536,7.198 10.696,12.632 7.488,18.837 -4.092,7.914 -11.581,9.179 -20.949,3.538 -4.851,-2.921 -6.763,-3.5 -11.568,-3.5 -4.015,0 -6.151,0.475 -7.061,1.573 -3.817,4.6 -13.730,6.789 -18.842,4.162 z       m 35.248,-24.393 c 0.360,-7.511 0.655,-18.267 0.655,-23.902 l 0,-10.244 -3.149,-1.097 c -4.010,-1.398 -8.690,-1.398 -12.701,0 l -3.149,1.097 0,23.902 0,23.902 8.844,0 8.844,0 0.655,-13.658 z       m 3.918,-44.222 c 1.945,-1.972 -4.102,-6.822 -9.521,-7.635 -4.915,-0.737 -12.314,0.873 -14.992,3.263 -1.630,1.455 -2.329,4.339 -1.301,5.367 0.246,0.246 5.877,0.405 12.513,0.352 8.231,-0.065 12.457,-0.493 13.301,-1.348 z       m -17.402,-10.173 c 2.951,-0.680 6.170,-0.671 9.959,0.029 4.653,0.860 5.855,0.777 7.121,-0.488 1.999,-1.999 0.572,-4.391 -4.017,-6.734 -7.344,-3.749 -21.925,-0.679 -21.925,4.616 0,3.618 1.923,4.177 8.861,2.577 z       m 6.638,-14.394 c 0.55,0.151 2.462,0.528 4.25,0.837 l 3.25,0.561 0,-17.763 c 0,-15.789 0.222,-18.199 2,-21.686 2.679,-5.255 2.519,-8.729 -0.573,-12.405 -5.185,-6.162 -15.469,-6.205 -21.584,-0.090 -3.338,3.338 -3.516,5.911 -0.820,11.855 1.732,3.817 1.978,6.560 1.978,22.070 l 0,17.711 5.25,-0.682 c 2.887,-0.375 5.7,-0.558 6.25,-0.407 z"/>
		</g>
		<symbol id="s3" viewBox="0 0 320 446">
			<use xlink:href="#tile"/>
			<g transform="translate(48.737,388.448)">
				<use xlink:href="#sou_p1" style="fill: #000000"/>
			</g>
			<g transform="translate(218.776,388.014)">
				<use xlink:href="#sou_p1" style="fill: #000000"/>
			</g>
			<g transform="translate(133.757,210.159)">
				<use xlink:href="#sou_p1" style="fill: #000000"/>
			</g>
		</symbol>
	</defs>
	<use xlink:href="#s3"/>
</svg>
