<?xml version="1.0" encoding="UTF-8" standalone="no"?>
<svg xmlns="http://www.w3.org/2000/svg" xmlns:xlink="http://www.w3.org/1999/xlink" version="1.1">
	 <defs>
	   <filter id="inset-shadow">
	    	<feOffset dx="0" dy="0"/>
	     	<feGaussianBlur stdDeviation="8" result="offset-blur"/>
	     	<feComposite operator="out" in="SourceGraphic" in2="offset-blur" result="inverse"/>
	     	<feFlood flood-color="black" flood-opacity="1" result="color"/>
	     	<feComposite operator="in" in="color" in2="inverse" result="shadow"/>
	     	<feComposite operator="over" in="shadow" in2="SourceGraphic"/>
	    </filter>
		<symbol id="tile" viewBox="0 0 320 446">
			<rect x="0" y="0" width="320" height="446" rx="30" ry="30" style="fill: #ffffff" filter="url(#inset-shadow)"/>
		</symbol>
		<g id="man_p">
			<path d="M 184.542,395.883 c -15.443,-3.327 -38.524,-11.042 -43.148,-14.423 -1.667,-1.219 -2.302,-1.040 -5.540,1.561 -2.771,2.226 -4.276,2.783 -6.212,2.297 -4.297,-1.078 -9.647,2.185 -11.795,7.197 -1.654,3.859 -2.219,4.335 -5.144,4.332 -7.551,-0.009 -12.165,-5.752 -14.857,-18.496 -0.697,-3.3 -1.307,-6.078 -1.356,-6.174 -0.049,-0.096 -2.784,0.459 -6.080,1.234 -17.668,4.155 -29.491,-0.956 -29.491,-12.752 0,-4.992 0.026,-5.033 2.75,-4.375 4.554,1.099 29.250,1.901 29.246,0.949 0,-0.484 -1.116,-6.505 -2.476,-13.380 -1.360,-6.875 -2.483,-15.537 -2.496,-19.25 -0.022,-6.498 0.068,-6.75 2.420,-6.75 1.344,0 3.589,1.012 4.988,2.25 2.679,2.368 3.621,5.452 7.598,24.870 l 2.175,10.620 4.147,-0.902 c 2.280,-0.496 8.984,-2.310 14.896,-4.031 l 10.75,-3.129 0,-7.838 c 0,-4.311 -0.184,-7.838 -0.411,-7.838 -0.226,0 -2.872,0.941 -5.880,2.093 -5.344,2.045 -5.481,2.195 -5.976,6.586 -0.908,8.060 -4.477,8.412 -7.855,0.774 -4.684,-10.589 -7.118,-23.232 -7.250,-37.666 -0.158,-17.189 -0.123,-17.241 11.659,-17.396 9.035,-0.119 14.609,-1.742 45.714,-13.316 20.231,-7.527 27.004,-9.352 31.548,-8.499 6.617,1.241 9.835,5.654 7.865,10.787 -0.322,0.839 -2.993,3.383 -5.936,5.654 -5.048,3.894 -5.446,4.533 -7.049,11.305 -1.090,4.606 -1.872,13.267 -2.182,24.177 l -0.483,17 15.869,0.040 c 14.685,0.037 16.503,0.251 24.369,2.867 23.379,7.775 32.328,16.707 28.04,27.986 -3.205,8.430 -27.177,24.047 -46.702,30.426 -9.461,3.090 -15.633,3.381 -25.710,1.210 z			m -49.392,-28.395 c 0.404,-0.624 0.741,-2.628 0.75,-4.453 0.012,-2.688 -0.316,-3.221 -1.734,-2.812 -10.395,3.000 -25.25,7.845 -25.25,8.234 0,0.998 3.287,6.947 4.779,8.649 1.449,1.652 2.093,1.458 11.129,-3.363 5.275,-2.814 9.921,-5.629 10.325,-6.254 z			m 53.765,6.915 c 8.996,-2.950 20.421,-8.331 25.278,-11.904 3.401,-2.502 7.721,-9.419 7.721,-12.362 0,-3.945 -2.317,-4.632 -13.283,-3.936 -5.619,0.356 -11.904,0.932 -13.966,1.280 l -3.75,0.632 0,5.918 c 0,6.548 -1.403,10.007 -5.660,13.947 -6.472,5.989 -10.408,6.092 -14.761,0.385 -1.790,-2.346 -3.500,-3.513 -5.150,-3.513 -3.383,0 -14.180,5.041 -18.339,8.562 l -3.412,2.889 2.412,0.724 c 1.326,0.398 9.612,0.598 18.412,0.444 14.368,-0.252 16.867,-0.565 24.5,-3.068 z			m -22.907,-17.601 c 2.383,-1.275 4.474,-4.950 2.816,-4.950 -0.638,0 -6.279,1.205 -12.535,2.678 l -11.374,2.678 0,3.731 0,3.731 9.615,-3.436 c 5.288,-1.890 10.453,-3.885 11.477,-4.432 z			m -1.317,-18.216 c 3.767,-0.826 5.125,-1.549 4.75,-2.527 -0.289,-0.753 -0.525,-3.416 -0.525,-5.917 l 0,-4.547 -5.25,0.669 c -2.887,0.368 -8.062,1.147 -11.5,1.731 l -6.25,1.061 0,7.326 0,7.326 6.75,-1.983 c 3.712,-1.090 9.124,-2.504 12.025,-3.141 m -32.404,-13.414 c 1.601,-0.454 1.781,-1.185 1.25,-5.064 -0.341,-2.493 -0.621,-5.799 -0.621,-7.346 l 0,-2.812 -4.5,1.667 -4.5,1.667 0,6.863 0,6.863 3.25,-0.654 c 1.787,-0.359 4.092,-0.893 5.121,-1.185 z			m 20.628,-6.819 c 3.025,-0.811 7.798,-1.481 10.607,-1.488 l 5.107,-0.011 0.644,-6.164 c 0.354,-3.390 0.449,-6.359 0.210,-6.598 -0.633,-0.633 -19.111,0.861 -20.386,1.649 -0.986,0.609 -2.972,14.128 -2.071,14.101 0.213,-0.007 2.863,-0.676 5.888,-1.488 z			m -22.833,-14.132 c 2.590,-0.567 2.650,-0.744 2.111,-6.225 -0.305,-3.102 -0.605,-5.674 -0.666,-5.715 -0.062,-0.040 -2.289,0.120 -4.950,0.357 -4.373,0.390 -4.783,0.637 -4.263,2.573 0.316,1.178 0.581,4.107 0.588,6.508 0.013,4.049 0.177,4.320 2.263,3.725 1.237,-0.352 3.45,-0.903 4.916,-1.224 z			m 26.646,-7.410 c 3.308,-0.650 7.804,-1.012 9.991,-0.804 l 3.975,0.379 0.635,-5.407 c 0.349,-2.973 0.511,-5.482 0.360,-5.574 -0.151,-0.091 -6.034,0.941 -13.072,2.296 -10.825,2.083 -12.691,2.708 -12.108,4.058 0.378,0.877 0.905,2.859 1.169,4.405 0.299,1.748 0.963,2.624 1.757,2.320 0.702,-0.269 3.983,-1.022 7.291,-1.673 z			m -65.312,-14.429 c -0.55,-0.173 -4.301,-0.860 -8.336,-1.527 -5.604,-0.926 -8.115,-1.897 -10.64,-4.113 -3.578,-3.142 -5.522,-9.287 -3.559,-11.251 0.734,-0.734 11.977,-1.302 33.596,-1.696 19.178,-0.349 32.896,-0.996 33.478,-1.578 2.007,-2.007 -0.150,-7.166 -4.161,-9.945 l -3.895,-2.699 8.795,-9.107 c 4.837,-5.009 10.510,-11.938 12.606,-15.399 3.294,-5.437 4.023,-6.116 5.372,-5 2.266,1.875 5.2,8.809 5.2,12.291 0,3.667 -3.076,10.666 -6.452,14.678 -2.738,3.254 -3.713,11.482 -1.253,10.574 0.687,-0.253 3.521,-1.207 6.298,-2.120 4.532,-1.489 5.311,-2.196 7.627,-6.917 5.994,-12.221 5.924,-22.435 -0.218,-32.121 -1.626,-2.564 -2.956,-4.878 -2.956,-5.141 0,-1.038 6.853,-6.697 13.472,-11.123 l 6.972,-4.662 4.527,2.514 c 2.490,1.383 5.797,4.308 7.349,6.499 5.973,8.437 2.737,20.080 -9.913,35.663 -3.055,3.763 -5.409,6.958 -5.231,7.100 0.178,0.141 8.075,-2.598 17.549,-6.090 31.375,-11.562 39.641,-13.185 47.943,-9.416 10.048,4.562 7.661,13.532 -4.551,17.098 -3.819,1.115 -14.123,2.309 -33.117,3.837 -14.378,1.156 -21.883,3.500 -50.314,15.711 -31.521,13.538 -34.734,14.433 -51.487,14.336 -7.534,-0.043 -14.148,-0.220 -14.698,-0.393 z"/>
		</g>
		<g id="man">
			<use xlink:href="#man_p" style="fill:#881c21"/>
		</g>
		<g id="man5c">
			<path d="M 253.005,186.450 c -3.025,-1.274 -11.8,-5.509 -19.5,-9.411 -20.036,-10.152 -21.885,-10.522 -43.261,-8.650 -29.541,2.587 -49.632,6.835 -57.43,12.141 -2.030,1.381 -4.116,2.249 -4.636,1.927 -0.519,-0.321 -1.501,0.086 -2.181,0.904 -2.754,3.319 -11.843,0.569 -17.087,-5.169 -7.037,-7.700 -7.478,-11.220 -2.452,-19.555 3.865,-6.410 6.549,-13.560 6.549,-17.449 l 0,-2.593 -3.25,2.653 c -18.887,15.419 -33.250,24.346 -46.138,28.677 -8.871,2.981 -20.657,5.410 -22.792,4.699 -0.691,-0.230 3.678,-2.991 9.711,-6.135 15.203,-7.923 28.022,-17.3 40.514,-29.637 11.877,-11.729 14.961,-16.826 17.561,-29.023 1.548,-7.264 1.473,-20.489 -0.161,-28.544 -0.859,-4.232 2.697,-8.243 10.881,-12.272 9.898,-4.872 11.208,-4.538 15.002,3.835 l 3.169,6.994 4.5,-0.016 c 12.148,-0.044 36.584,-7.681 56.946,-17.798 l 15.446,-7.674 12.553,0.056 c 10.564,0.047 13.454,0.411 18.242,2.299 10.069,3.970 13.701,10.422 10.705,19.017 -1.968,5.646 -5.968,6.269 -22.655,3.528 -11.779,-1.935 -23.430,-1.446 -38.239,1.602 l -10.5,2.162 -6.333,6.167 c -3.483,3.392 -7.584,7.967 -9.111,10.167 -2.610,3.758 -6.461,14.426 -5.540,15.347 1.018,1.018 15.093,-8.520 21.945,-14.873 4.136,-3.835 8.088,-6.971 8.781,-6.968 3.522,0.016 8.899,2.356 10.714,4.663 1.465,1.863 2.045,4.076 2.045,7.804 0,5.915 -2.774,36.188 -3.540,38.633 -0.426,1.360 0.765,1.689 7.768,2.138 9.409,0.604 17.155,2.964 30.723,9.361 17.399,8.203 24.048,15.291 24.048,25.636 0,8.010 -3.385,9.404 -13,5.354 z			m -120.567,-26.602 c 2.631,-3.852 6.686,-11.389 9.009,-16.75 l 4.224,-9.746 -8.465,-0.739 c -4.656,-0.406 -9.980,-1.158 -11.833,-1.669 -2.951,-0.815 -3.367,-0.699 -3.367,0.934 0,3.974 4.789,34.974 5.402,34.974 0.134,0 2.397,-3.151 5.029,-7.003 z			m 27.693,-3.902 c 6.944,-2.816 15.938,-5.961 19.986,-6.99 8.687,-2.206 8.642,-2.121 8.788,-16.231 0.112,-10.889 -0.639,-12.381 -5.536,-10.976 -1.639,0.470 -4.529,1.671 -6.422,2.668 -1.892,0.997 -7.229,3.191 -11.858,4.874 l -8.416,3.060 -5.324,13 c -6.803,16.609 -6.907,16.936 -5.206,16.258 0.750,-0.299 7.047,-2.848 13.991,-5.665 z 			m -12.914,-35.094 c 3.654,-1.055 3.766,-1.240 7.25,-12.016 3.840,-11.880 4.164,-14.607 2.337,-19.661 l -1.200,-3.321 -8.549,6e-4 -8.549,6e-4 -0.115,6.868 c -0.139,8.303 -2.546,16.395 -6.958,23.392 -2.363,3.748 -2.953,5.438 -2.104,6.029 1.436,1.001 12.787,0.181 17.890,-1.292 z"/>
		</g>
		<symbol id="m5" viewBox="0 0 320 446">
			<use xlink:href="#tile"/>
			<use xlink:href="#man5c" style="fill: #000000"/>
			<use xlink:href="#man"/>
		</symbol>
	</defs>
	<use xlink:href="#m5"/>
</svg>
