<?xml version="1.0" encoding="UTF-8" standalone="no"?>
<svg xmlns="http://www.w3.org/2000/svg" xmlns:xlink="http://www.w3.org/1999/xlink" version="1.1">
	<defs>
	   <filter id="inset-shadow">
	    	<feOffset dx="0" dy="0"/>
	     	<feGaussianBlur stdDeviation="8" result="offset-blur"/>
	     	<feComposite operator="out" in="SourceGraphic" in2="offset-blur" result="inverse"/>
	     	<feFlood flood-color="black" flood-opacity="1" result="color"/>
	     	<feComposite operator="in" in="color" in2="inverse" result="shadow"/>
	     	<feComposite operator="over" in="shadow" in2="SourceGraphic"/>
	    </filter>
		<symbol id="tile" viewBox="0 0 320 446">
			<rect x="0" y="0" width="320" height="446" rx="30" ry="30" style="fill: #ffffff" filter="url(#inset-shadow)"/>
		</symbol>
		<symbol id="s8" viewBox="0 0 320 446">
			<use xlink:href="#tile"/>
			<g id="sou8_p">
				<path style="fill: #000000" d="M 42.319,390.718 c -6.772,-6.772 -5.380,-13.388 4.570,-21.720 l 4.950,-4.144 0,-14.371 c 0,-13.670 -0.104,-14.427 -2.144,-15.519 -3.427,-1.834 -10.881,-9.071 -12.432,-12.071 -0.782,-1.513 -1.423,-3.757 -1.423,-4.986 0,-3.885 4.096,-10.895 10.148,-17.364 l 5.851,-6.255 0,-11.145 0,-11.145 -7.5,-8.019 c -8.762,-9.369 -9.484,-12.087 -4.357,-16.401 16.312,-13.726 46.384,-13.741 62.677,-0.031 l 3.105,2.612 1.482,-3.547 c 2.373,-5.681 5.884,-8.566 10.424,-8.566 5.622,0 6.542,1.603 5.887,10.263 l -0.547,7.236 5.986,6.099 5.986,6.099 5.854,-1.352 c 10.537,-2.434 13.524,0.693 12.749,13.350 -0.440,7.186 -0.435,7.202 3.203,10.755 l 3.644,3.558 3.451,-3.563 c 3.374,-3.483 3.451,-3.749 3.451,-11.899 0,-6.794 0.352,-8.726 1.904,-10.442 2.177,-2.407 8.188,-2.841 13.536,-0.976 3.150,1.098 3.402,0.968 9.191,-4.75 l 5.951,-5.879 -0.654,-7.565 c -0.767,-8.870 0.416,-10.934 6.274,-10.934 2.787,0 4.291,0.775 6.928,3.571 1.852,1.964 3.368,4.214 3.368,5 0,1.929 1.258,1.797 4.115,-0.433 15.921,-12.434 45.102,-11.763 60.742,1.396 5.161,4.343 4.432,7.349 -3.857,15.898 l -7,7.219 0,12.290 0,12.290 5.644,6.096 c 8.548,9.233 10.936,15.713 7.932,21.522 -1.551,2.999 -9.004,10.236 -12.432,12.071 -2.036,1.089 -2.144,1.855 -2.144,15.204 l 0,14.056 6.432,6.214 c 9.003,8.698 9.757,13.612 3.108,20.260 -4.470,4.470 -9.693,4.574 -17.195,0.341 -4.494,-2.536 -6.390,-3 -12.271,-3 -3.825,0 -7.238,0.456 -7.583,1.014 -1.340,2.169 -8.614,4.985 -12.874,4.985 -5.417,0 -9.902,-3.307 -11.644,-8.585 -1.740,-5.273 -0.637,-7.645 7.026,-15.108 l 6.987,-6.805 0.007,-13.589 c 0.007,-13.124 -0.069,-13.624 -2.242,-14.617 -4.661,-2.130 -12.703,-10.404 -13.857,-14.257 -1.010,-3.373 -0.850,-4.445 1.396,-9.354 1.396,-3.049 5.069,-8.157 8.163,-11.352 l 5.625,-5.807 -0.288,-6.972 c -0.287,-6.947 -0.300,-6.974 -3.459,-7.617 -2.898,-0.590 -3.701,-0.108 -9.379,5.620 -6.060,6.114 -6.182,6.343 -5.079,9.506 0.621,1.782 1.129,5.391 1.129,8.020 0,7.532 -3.373,9.619 -13.988,8.656 l -5.809,-0.526 -4.765,5.519 -4.765,5.519 -0.085,8.126 -0.085,8.126 -3.176,0.307 c -3.179,0.308 -9.094,-2.145 -14.702,-6.098 -2.532,-1.785 -3.134,-1.862 -5,-0.643 -5.312,3.470 -13.151,6.934 -15.694,6.934 -3.603,0 -4.306,-2.203 -3.456,-10.831 l 0.656,-6.668 -5.100,-4.998 -5.100,-4.998 -8.049,-0.001 c -7.377,-10e-4 -8.218,-0.209 -10.076,-2.501 -2.017,-2.487 -2.091,-6.141 -0.305,-15 0.403,-2.002 -0.640,-3.744 -5.245,-8.750 l -5.749,-6.250 -4.5,0.775 -4.5,0.775 -0.297,6.797 -0.297,6.797 5.899,6.306 c 7.450,7.964 10.656,14.277 9.738,19.172 -0.741,3.952 -6.776,11.122 -12.164,14.452 l -3.378,2.087 0,14.351 0,14.351 4.378,3.587 c 2.408,1.973 5.610,5.365 7.116,7.538 3.542,5.112 2.873,9.838 -2.095,14.808 -3.219,3.219 -3.783,3.414 -8.700,3.007 -3.523,-0.292 -6.560,-1.321 -9.210,-3.122 -3.322,-2.257 -5.027,-2.686 -10.685,-2.686 -5.763,0 -7.414,0.432 -11.463,3 -6.880,4.363 -13.290,4.248 -17.860,-0.321 z				m 37.288,-32.928 -0.267,-24.25 -5,-0.828 c -3.491,-0.578 -6.207,-0.426 -9,0.504 -3.401,1.133 -3.990,1.743 -3.937,4.078 0.034,1.510 0.146,12.195 0.25,23.745 l 0.187,21 9.017,0 9.017,0 -0.267,-24.25 z				m 176.578,12.093 c 0.359,-6.686 0.653,-17.456 0.653,-23.932 0,-12.973 0.458,-12.103 -7.090,-13.438 -1.974,-0.349 -5.462,-0.130 -7.75,0.485 l -4.159,1.119 0,23.961 0,23.961 8.846,0 8.846,0 0.653,-12.157 z				m -181.846,-44.323 c 9.259,-0.017 10,-0.164 10,-1.979 0,-1.113 -1.468,-2.949 -3.397,-4.25 -4.156,-2.801 -12.994,-3.116 -19.081,-0.681 -3.357,1.343 -4.020,2.071 -4.020,4.416 0,3.104 1.462,4.129 4.5,3.155 1.1,-0.352 6.5,-0.650 12,-0.661 z				m 177.187,0.236 c 8.468,0.264 9.900,-0.329 8.840,-3.668 -1.489,-4.691 -14.463,-6.697 -22.507,-3.478 -3.357,1.343 -4.020,2.071 -4.020,4.416 0,3.348 1.316,4.038 6,3.143 1.925,-0.367 7.184,-0.553 11.687,-0.412 z				m -92.803,-0.663 c 0.761,-0.482 2.561,-0.553 4,-0.158 4.624,1.269 7.490,-0.139 8.886,-4.367 0.756,-2.291 4.585,-7.480 9.462,-12.821 l 8.191,-8.973 -2.095,-3.636 c -1.152,-1.999 -3.562,-4.502 -5.353,-5.560 l -3.258,-1.924 -8.608,9.210 c -4.734,5.066 -9.364,9.194 -10.289,9.174 -0.924,-0.019 -5.199,-3.857 -9.5,-8.528 -4.300,-4.670 -8.347,-8.495 -8.992,-8.5 -1.785,-0.012 -7.222,4.889 -8.793,7.927 -1.364,2.639 -1.216,2.889 6.879,11.630 4.830,5.215 8.779,10.467 9.486,12.619 0.666,2.026 1.749,3.903 2.406,4.171 1.990,0.809 6.109,0.666 7.577,-0.263 z				m -74.383,-13.142 c 0,-3.889 -7.351,-7.232 -14.587,-6.632 -7.736,0.641 -11.912,2.934 -11.912,6.543 l 0,2.809 13.25,-0.134 13.25,-0.134 0,-2.450 z				m 176.331,0.687 c 1.247,-6.475 -14.783,-9.816 -24.068,-5.015 -2.496,1.291 -3.801,5.005 -2.289,6.517 0.260,0.260 6.220,0.430 13.243,0.378 11.422,-0.085 12.806,-0.283 13.113,-1.881 z				m -179.831,-29.427 c -5e-5,-15.316 0.228,-17.737 1.999,-21.210 3.002,-5.885 2.622,-9.577 -1.4,-13.6 -3.064,-3.064 -3.957,-3.4 -9.049,-3.4 -12.257,0 -17.559,7.181 -12.550,17 1.771,3.472 2.000,5.894 2.000,21.210 l 6.8e-4,17.289 9.499,0 9.499,0 -5e-5,-17.289 z				m 175.999,0.251 c 0,-15.064 0.231,-17.493 2,-20.961 3.431,-6.729 1.914,-13.850 -3.472,-16.305 -4.480,-2.041 -12.780,-1.499 -16.616,1.086 -4.862,3.276 -5.806,6.732 -3.426,12.538 1.590,3.880 1.977,7.760 2.258,22.681 l 0.338,18 9.459,0 9.459,0 0,-17.038 z				m -129,12.428 c 0,-0.610 2.703,-3.714 6.007,-6.897 4.127,-3.976 5.815,-6.289 5.393,-7.390 -2.137,-5.571 -15.400,5.232 -15.400,12.545 0,2.185 0.467,2.852 2,2.852 1.1,0 2,-0.499 2,-1.109 z				m 68.639,-0.392 c 1.079,-2.812 -0.770,-6.891 -5.077,-11.198 -4.419,-4.419 -9.066,-5.753 -10.155,-2.914 -0.497,1.297 12.086,15.401 13.875,15.550 0.429,0.035 1.040,-0.610 1.357,-1.437 z				m -71.179,-11.853 c 2.222,-2.395 4.715,-4.589 5.540,-4.875 1.062,-0.367 -1.708,-3.869 -9.5,-12.004 -6.05,-6.317 -11.466,-11.548 -12.037,-11.624 -0.570,-0.076 -3.228,2.085 -5.905,4.803 l -4.868,4.942 10.779,11.557 c 5.928,6.356 11.042,11.557 11.365,11.557 0.322,0 2.404,-1.960 4.626,-4.356 z				m 86.058,-7.448 10.805,-11.304 -5.411,-5.491 -5.411,-5.491 -11.018,11.690 -11.018,11.690 5.018,5.284 c 2.760,2.906 5.291,5.203 5.625,5.105 0.333,-0.098 5.468,-5.265 11.411,-11.483 z"/>
			</g>
			<g transform="rotate(180 159.379,223.451)">
				<use xlink:href="#sou8_p"/>
			</g>
		</symbol>
	</defs>
	<use xlink:href="#s8"/>
</svg>
