<?xml version="1.0" encoding="UTF-8" standalone="no"?>
<svg xmlns="http://www.w3.org/2000/svg" xmlns:xlink="http://www.w3.org/1999/xlink" version="1.1">
	 <defs>
	   <filter id="inset-shadow">
	    	<feOffset dx="0" dy="0"/>
	     	<feGaussianBlur stdDeviation="8" result="offset-blur"/>
	     	<feComposite operator="out" in="SourceGraphic" in2="offset-blur" result="inverse"/>
	     	<feFlood flood-color="black" flood-opacity="1" result="color"/>
	     	<feComposite operator="in" in="color" in2="inverse" result="shadow"/>
	     	<feComposite operator="over" in="shadow" in2="SourceGraphic"/>
	    </filter>
		<symbol id="tile" viewBox="0 0 320 446">
			<rect x="0" y="0" width="320" height="446" rx="30" ry="30" style="fill: #ffffff" filter="url(#inset-shadow)"/>
		</symbol>
		<g id="man_p">
			<path d="M 184.542,395.883 c -15.443,-3.327 -38.524,-11.042 -43.148,-14.423 -1.667,-1.219 -2.302,-1.040 -5.540,1.561 -2.771,2.226 -4.276,2.783 -6.212,2.297 -4.297,-1.078 -9.647,2.185 -11.795,7.197 -1.654,3.859 -2.219,4.335 -5.144,4.332 -7.551,-0.009 -12.165,-5.752 -14.857,-18.496 -0.697,-3.3 -1.307,-6.078 -1.356,-6.174 -0.049,-0.096 -2.784,0.459 -6.080,1.234 -17.668,4.155 -29.491,-0.956 -29.491,-12.752 0,-4.992 0.026,-5.033 2.75,-4.375 4.554,1.099 29.250,1.901 29.246,0.949 0,-0.484 -1.116,-6.505 -2.476,-13.380 -1.360,-6.875 -2.483,-15.537 -2.496,-19.25 -0.022,-6.498 0.068,-6.75 2.420,-6.75 1.344,0 3.589,1.012 4.988,2.25 2.679,2.368 3.621,5.452 7.598,24.870 l 2.175,10.620 4.147,-0.902 c 2.280,-0.496 8.984,-2.310 14.896,-4.031 l 10.75,-3.129 0,-7.838 c 0,-4.311 -0.184,-7.838 -0.411,-7.838 -0.226,0 -2.872,0.941 -5.880,2.093 -5.344,2.045 -5.481,2.195 -5.976,6.586 -0.908,8.060 -4.477,8.412 -7.855,0.774 -4.684,-10.589 -7.118,-23.232 -7.250,-37.666 -0.158,-17.189 -0.123,-17.241 11.659,-17.396 9.035,-0.119 14.609,-1.742 45.714,-13.316 20.231,-7.527 27.004,-9.352 31.548,-8.499 6.617,1.241 9.835,5.654 7.865,10.787 -0.322,0.839 -2.993,3.383 -5.936,5.654 -5.048,3.894 -5.446,4.533 -7.049,11.305 -1.090,4.606 -1.872,13.267 -2.182,24.177 l -0.483,17 15.869,0.040 c 14.685,0.037 16.503,0.251 24.369,2.867 23.379,7.775 32.328,16.707 28.04,27.986 -3.205,8.430 -27.177,24.047 -46.702,30.426 -9.461,3.090 -15.633,3.381 -25.710,1.210 z			m -49.392,-28.395 c 0.404,-0.624 0.741,-2.628 0.75,-4.453 0.012,-2.688 -0.316,-3.221 -1.734,-2.812 -10.395,3.000 -25.25,7.845 -25.25,8.234 0,0.998 3.287,6.947 4.779,8.649 1.449,1.652 2.093,1.458 11.129,-3.363 5.275,-2.814 9.921,-5.629 10.325,-6.254 z			m 53.765,6.915 c 8.996,-2.950 20.421,-8.331 25.278,-11.904 3.401,-2.502 7.721,-9.419 7.721,-12.362 0,-3.945 -2.317,-4.632 -13.283,-3.936 -5.619,0.356 -11.904,0.932 -13.966,1.280 l -3.75,0.632 0,5.918 c 0,6.548 -1.403,10.007 -5.660,13.947 -6.472,5.989 -10.408,6.092 -14.761,0.385 -1.790,-2.346 -3.500,-3.513 -5.150,-3.513 -3.383,0 -14.180,5.041 -18.339,8.562 l -3.412,2.889 2.412,0.724 c 1.326,0.398 9.612,0.598 18.412,0.444 14.368,-0.252 16.867,-0.565 24.5,-3.068 z			m -22.907,-17.601 c 2.383,-1.275 4.474,-4.950 2.816,-4.950 -0.638,0 -6.279,1.205 -12.535,2.678 l -11.374,2.678 0,3.731 0,3.731 9.615,-3.436 c 5.288,-1.890 10.453,-3.885 11.477,-4.432 z			m -1.317,-18.216 c 3.767,-0.826 5.125,-1.549 4.75,-2.527 -0.289,-0.753 -0.525,-3.416 -0.525,-5.917 l 0,-4.547 -5.25,0.669 c -2.887,0.368 -8.062,1.147 -11.5,1.731 l -6.25,1.061 0,7.326 0,7.326 6.75,-1.983 c 3.712,-1.090 9.124,-2.504 12.025,-3.141 m -32.404,-13.414 c 1.601,-0.454 1.781,-1.185 1.25,-5.064 -0.341,-2.493 -0.621,-5.799 -0.621,-7.346 l 0,-2.812 -4.5,1.667 -4.5,1.667 0,6.863 0,6.863 3.25,-0.654 c 1.787,-0.359 4.092,-0.893 5.121,-1.185 z			m 20.628,-6.819 c 3.025,-0.811 7.798,-1.481 10.607,-1.488 l 5.107,-0.011 0.644,-6.164 c 0.354,-3.390 0.449,-6.359 0.210,-6.598 -0.633,-0.633 -19.111,0.861 -20.386,1.649 -0.986,0.609 -2.972,14.128 -2.071,14.101 0.213,-0.007 2.863,-0.676 5.888,-1.488 z			m -22.833,-14.132 c 2.590,-0.567 2.650,-0.744 2.111,-6.225 -0.305,-3.102 -0.605,-5.674 -0.666,-5.715 -0.062,-0.040 -2.289,0.120 -4.950,0.357 -4.373,0.390 -4.783,0.637 -4.263,2.573 0.316,1.178 0.581,4.107 0.588,6.508 0.013,4.049 0.177,4.320 2.263,3.725 1.237,-0.352 3.45,-0.903 4.916,-1.224 z			m 26.646,-7.410 c 3.308,-0.650 7.804,-1.012 9.991,-0.804 l 3.975,0.379 0.635,-5.407 c 0.349,-2.973 0.511,-5.482 0.360,-5.574 -0.151,-0.091 -6.034,0.941 -13.072,2.296 -10.825,2.083 -12.691,2.708 -12.108,4.058 0.378,0.877 0.905,2.859 1.169,4.405 0.299,1.748 0.963,2.624 1.757,2.320 0.702,-0.269 3.983,-1.022 7.291,-1.673 z			m -65.312,-14.429 c -0.55,-0.173 -4.301,-0.860 -8.336,-1.527 -5.604,-0.926 -8.115,-1.897 -10.64,-4.113 -3.578,-3.142 -5.522,-9.287 -3.559,-11.251 0.734,-0.734 11.977,-1.302 33.596,-1.696 19.178,-0.349 32.896,-0.996 33.478,-1.578 2.007,-2.007 -0.150,-7.166 -4.161,-9.945 l -3.895,-2.699 8.795,-9.107 c 4.837,-5.009 10.510,-11.938 12.606,-15.399 3.294,-5.437 4.023,-6.116 5.372,-5 2.266,1.875 5.2,8.809 5.2,12.291 0,3.667 -3.076,10.666 -6.452,14.678 -2.738,3.254 -3.713,11.482 -1.253,10.574 0.687,-0.253 3.521,-1.207 6.298,-2.120 4.532,-1.489 5.311,-2.196 7.627,-6.917 5.994,-12.221 5.924,-22.435 -0.218,-32.121 -1.626,-2.564 -2.956,-4.878 -2.956,-5.141 0,-1.038 6.853,-6.697 13.472,-11.123 l 6.972,-4.662 4.527,2.514 c 2.490,1.383 5.797,4.308 7.349,6.499 5.973,8.437 2.737,20.080 -9.913,35.663 -3.055,3.763 -5.409,6.958 -5.231,7.100 0.178,0.141 8.075,-2.598 17.549,-6.090 31.375,-11.562 39.641,-13.185 47.943,-9.416 10.048,4.562 7.661,13.532 -4.551,17.098 -3.819,1.115 -14.123,2.309 -33.117,3.837 -14.378,1.156 -21.883,3.500 -50.314,15.711 -31.521,13.538 -34.734,14.433 -51.487,14.336 -7.534,-0.043 -14.148,-0.220 -14.698,-0.393 z"/>
		</g>
		<g id="man">
			<use xlink:href="#man_p" style="fill:#881c21"/>
		</g>
		<symbol id="m9" viewBox="0 0 320 446">
			<use xlink:href="#tile"/>
			<path style="fill: #000000" d="M 203.807,183.339 c -7.192,-1.746 -19.614,-6.689 -28.415,-11.306 -8.623,-4.523 -18.226,-13.364 -21.951,-20.208 -4.978,-9.146 -5.554,-13.311 -5.567,-40.219 -0.01,-20.059 -0.266,-24.75 -1.356,-24.75 -2.909,0 -4.392,3.539 -5.027,12 -1.619,21.590 -9.034,34.190 -28.098,47.751 -10.313,7.336 -27.269,16.169 -37.871,19.727 -11.084,3.720 -13.129,1.805 -3.336,-3.124 10.360,-5.216 27.355,-17.237 33.020,-23.355 3.147,-3.399 7.019,-8.750 8.605,-11.891 2.736,-5.420 6.629,-16.974 5.896,-17.500 -0.188,-0.135 -2.213,-0.782 -4.499,-1.438 -5.168,-1.482 -10.342,-7.047 -10.342,-11.123 0,-2.435 0.501,-2.995 3.210,-3.590 6.597,-1.449 11.789,-4.289 11.789,-6.450 0,-3.139 -2.529,-8.534 -6.061,-12.929 -3.008,-3.743 -3.151,-4.306 -2.775,-10.956 0.217,-3.855 0.676,-7.290 1.020,-7.633 1.084,-1.084 17.418,2.650 21.452,4.904 3.402,1.901 3.964,2.754 4.700,7.135 0.459,2.737 1.030,5.987 1.268,7.223 l 0.432,2.247 3.469,-2.247 c 2.758,-1.786 3.471,-2.901 3.481,-5.441 0.01,-1.900 0.967,-4.305 2.371,-5.937 l 2.359,-2.742 3.291,2.083 3.291,2.083 6.816,-4.369 c 8.901,-5.705 17.788,-10.424 19.632,-10.424 2.604,0 13.276,6.243 15.800,9.243 2.907,3.455 3.247,8.814 0.719,11.342 -4.082,4.082 -10.358,5.749 -24.155,6.414 -11.616,0.560 -13.570,0.900 -14.794,2.572 -5.442,7.437 -6.488,28.601 -2.040,41.261 3.524,10.031 8.159,17.388 14.898,23.650 5.675,5.274 12.522,8.546 17.748,8.482 3.594,-0.044 16.032,-6.913 18.414,-10.170 1.971,-2.695 1.971,-2.715 -0.111,-8.5 -1.148,-3.189 -3.725,-9.751 -5.727,-14.582 -2.001,-4.831 -3.869,-10.456 -4.149,-12.5 -0.445,-3.247 0.077,-2.643 4.144,4.784 8.634,15.768 11.142,18.263 25.109,24.973 22.467,10.794 26.895,18.376 18.305,31.344 -8.204,12.386 -27.397,18.433 -44.965,14.166 z"/>
			<use xlink:href="#man"/>
		</symbol>
	</defs>
	<use xlink:href="#m9"/>
</svg>
