<?xml version="1.0" encoding="UTF-8" standalone="no"?>
<svg xmlns="http://www.w3.org/2000/svg" xmlns:xlink="http://www.w3.org/1999/xlink" version="1.1">
	<defs>
	   <filter id="inset-shadow">
	    	<feOffset dx="0" dy="0"/>
	     	<feGaussianBlur stdDeviation="8" result="offset-blur"/>
	     	<feComposite operator="out" in="SourceGraphic" in2="offset-blur" result="inverse"/>
	     	<feFlood flood-color="black" flood-opacity="1" result="color"/>
	     	<feComposite operator="in" in="color" in2="inverse" result="shadow"/>
	     	<feComposite operator="over" in="shadow" in2="SourceGraphic"/>
	    </filter>
		<symbol id="tile" viewBox="0 0 320 446">
			<rect x="0" y="0" width="320" height="446" rx="30" ry="30" style="fill: #ffffff" filter="url(#inset-shadow)"/>
		</symbol>
		<g id="pin_p2">
			<path d="M 0,0 c -30.854,-4.622 -51.574,-32.266 -46.543,-62.095 1.855,-11.002 6.804,-20.262 15.322,-28.669 11.227,-11.081 22.103,-15.555 37.865,-15.577 15.630,-0.021 28.760,5.717 39.419,17.230 30.444,32.883 8.815,86.000 -36.280,89.095 -3.730,0.256 -8.133,0.263 -9.783,0.016 z		  m 14.613,-9.352 c 16.793,-3.113 31.119,-16.275 35.334,-32.461 5.388,-20.693 -4.524,-42.075 -23.927,-51.610 -6.821,-3.352 -7.262,-3.429 -19.5,-3.429 -12.029,0 -12.788,0.126 -19.322,3.221 -16.765,7.941 -26.832,25.266 -25.415,43.740 2.038,26.567 26.587,45.405 52.830,40.539 z"/>
		</g>
		<g id="pin_p3">
			<path d="M -7.607,-17.662 c -10.246,-4.299 -16.224,-9.985 -20.906,-19.885 -8.828,-18.667 -0.615,-40.987 18.536,-50.375 5.457,-2.675 6.893,-2.930 16.478,-2.930 9.584,0 11.021,0.255 16.478,2.930 15.538,7.617 24.424,24.501 21.483,40.819 -2.270,12.591 -10.401,23.259 -21.786,28.582 -4.667,2.182 -7.363,2.703 -15.175,2.932 -8.117,0.238 -10.316,-0.063 -15.107,-2.073 z		  m 9.584,-7.863 c 2.847,-1.297 4.193,-4.807 2.799,-7.299 -1.176,-2.102 -17.193,-13.529 -18.963,-13.529 -1.114,0 -1.095,-0.404 0.104,-2.25 1.771,-2.723 6.551,-17.456 6.569,-20.25 0.012,-1.900 0.683,-2 13.523,-2 10.616,0 13.405,0.276 13.016,1.289 -0.551,1.436 5.116,19.998 6.705,21.960 0.556,0.687 2.274,1.25 3.817,1.25 4.163,0 6.950,-4.075 6.950,-10.166 0,-6.293 -1.885,-10.717 -6.065,-14.234 -2.731,-2.298 -4.013,-2.717 -7.064,-2.308 -2.681,0.359 -3.595,0.156 -3.258,-0.722 0.258,-0.672 0.012,-2.425 -0.546,-3.894 -3.423,-9.004 -23.707,-9.004 -27.131,0 -0.558,1.469 -0.809,3.209 -0.557,3.867 0.329,0.858 -0.777,1.056 -3.932,0.700 -3.977,-0.448 -4.714,-0.171 -7.828,2.942 -3.889,3.889 -6.096,10.474 -5.252,15.673 0.648,3.993 4.154,8.142 6.881,8.142 1.724,0 1.754,0.142 0.325,1.571 -4.300,4.300 -0.051,14.497 7.625,18.297 4.841,2.396 8.499,2.682 12.279,0.959 z		  m 21.649,-1.693 c 6.483,-4.111 9.492,-11.240 6.838,-16.200 -1.162,-2.171 -4.951,-2.546 -8.195,-0.810 -3.190,1.707 -14.171,9.924 -15.004,11.227 -0.404,0.632 -0.741,2.013 -0.75,3.070 -0.049,6.125 9.375,7.619 17.111,2.713 z		  m -10.507,-12.758 c 10.861,-5.153 10.906,-21.511 0.073,-26.429 -5.484,-2.489 -8.331,-2.426 -13.655,0.303 -5.765,2.956 -8.305,7.576 -7.737,14.074 0.494,5.650 2.995,9.488 7.772,11.923 4.287,2.186 9.114,2.231 13.547,0.128 z		  m -10.762,-5.893 c -2.891,-1.570 -5.124,-6.537 -4.164,-9.261 0.333,-0.947 1.518,-2.734 2.632,-3.971 3.99,-4.432 11.805,-2.212 13.985,3.971 0.990,2.811 -1.317,7.731 -4.367,9.308 -3.479,1.799 -4.699,1.792 -8.085,-0.046 z"/>
		</g>
		<g id="pin_p23_blue">
			<use xlink:href="#pin_p2" style="fill: #0f1938"/>
			<use xlink:href="#pin_p3" style="fill: #0f1938"/>
		</g>
		<g id="pin_p23_blue_red">
			<use xlink:href="#pin_p2" style="fill: #0f1938"/>
			<use xlink:href="#pin_p3" style="fill: #881c21"/>
		</g>
		<g id="pin_p3_blue">
			<g transform="scale(0.9,0.9)">
				<use xlink:href="#pin_p23_blue"/>
			</g>
		</g>
		<g id="pin_p3_blue_red">
			<g transform="scale(0.9,0.9)">
				<use xlink:href="#pin_p23_blue_red"/>
			</g>
		</g>
		<symbol id="p9" viewBox="0 0 320 446">
			<use xlink:href="#tile"/>
			<g id="pin9_p">
				<g transform="translate(60,146)">
					<use xlink:href="#pin_p3_blue"/>
				</g>
				<g transform="translate(60,270)">
					<use xlink:href="#pin_p3_blue_red"/>
				</g>
				<g transform="translate(60,396)">
					<use xlink:href="#pin_p3_blue"/>
				</g>
			</g>
			<g transform="translate(94,0)">
				<use xlink:href="#pin9_p"/>
			</g>
			<g transform="translate(188,0)">
				<use xlink:href="#pin9_p"/>
			</g>
		</symbol>
	</defs>
	<use xlink:href="#p9"/>
</svg>
