<?xml version="1.0" encoding="UTF-8" standalone="no"?>
<svg xmlns="http://www.w3.org/2000/svg" xmlns:xlink="http://www.w3.org/1999/xlink" version="1.1">
	 <defs>
	   <filter id="inset-shadow">
	    	<feOffset dx="0" dy="0"/>
	     	<feGaussianBlur stdDeviation="8" result="offset-blur"/>
	     	<feComposite operator="out" in="SourceGraphic" in2="offset-blur" result="inverse"/>
	     	<feFlood flood-color="black" flood-opacity="1" result="color"/>
	     	<feComposite operator="in" in="color" in2="inverse" result="shadow"/>
	     	<feComposite operator="over" in="shadow" in2="SourceGraphic"/>
	    </filter>
		<symbol id="tile" viewBox="0 0 320 446">
			<rect x="0" y="0" width="320" height="446" rx="30" ry="30" style="fill: #ffffff" filter="url(#inset-shadow)"/>
		</symbol>
		<symbol id="chun" viewBox="0 0 320 446">
			<use xlink:href="#tile"/>
			<path style="fill: #881c21" d="M 157.601,374.750 c -5.966,-9.262 -9.328,-52.780 -8.073,-104.5 l 0.685,-28.25 -5.854,0.037 c -3.220,0.02 -8.924,0.630 -12.677,1.357 -5.449,1.054 -7.400,1.952 -9.693,4.463 -3.460,3.788 -6.295,3.974 -11.072,0.728 -6.729,-4.573 -34.687,-38.585 -50.063,-60.904 -4.286,-6.222 -4.848,-7.644 -4.848,-12.283 0,-6.765 1.996,-15.398 3.561,-15.398 2.543,0 13.304,9.024 22.629,18.976 l 9.690,10.342 28.055,-9.409 28.055,-9.409 0.004,-4.119 c 0.006,-6.189 -2.816,-21.133 -4.669,-24.720 -0.897,-1.738 -4.949,-6.760 -9.004,-11.160 -14.484,-15.717 -15.864,-24.708 -5.202,-33.895 5.811,-5.007 11.586,-8.310 15.911,-9.100 3.047,-0.556 4.416,-0.056 10,3.659 8.406,5.593 29.153,26.134 31.862,31.546 1.158,2.315 2.106,5.240 2.105,6.5 -7e-4,1.307 -2.501,5.348 -5.829,9.420 -6.933,8.482 -9.347,13.229 -9.961,19.584 l -0.455,4.714 6.873,-2.004 c 12.142,-3.541 37.295,-8.925 41.650,-8.915 9.317,0.022 16.566,5.781 35.851,28.490 11.891,14.003 13.478,16.293 12.183,17.588 -0.591,0.591 -5.415,2.149 -10.720,3.464 -13.818,3.422 -19.391,7.746 -32.507,25.222 -16.323,21.748 -18.893,23.725 -29.932,23.022 -5.441,-0.346 -6.770,-0.815 -8.712,-3.073 -2.012,-2.339 -3.289,-2.747 -10.474,-3.346 l -8.182,-0.682 0.603,12.402 c 0.331,6.821 1.111,28.152 1.733,47.402 1.432,44.349 0.855,51.107 -5.544,64.895 -2.451,5.282 -4.923,9.604 -5.492,9.604 -0.569,0 -1.687,-1.012 -2.484,-2.25 z			m -18.596,-143.217 c 5.225,-0.838 9.896,-1.526 10.382,-1.528 0.903,0 0.381,-42.573 -0.533,-43.488 -1.217,-1.217 -47.225,8.568 -49.194,10.462 -0.465,0.447 2.829,5.248 7.320,10.668 4.491,5.419 10.693,13.570 13.782,18.112 3.899,5.735 6.092,8.111 7.179,7.778 0.860,-0.263 5.838,-1.165 11.063,-2.004 z			m 61.454,-15.282 c 15.191,-23.181 19.770,-34.225 16.624,-40.103 -1.675,-3.130 -6.372,-2.810 -27.199,1.853 -9.824,2.2 -18.052,4 -18.285,4 -0.631,0 -1.456,12.489 -2.024,30.615 l -0.504,16.115 9.217,0.981 c 5.069,0.539 9.957,1.049 10.861,1.134 1.088,0.101 4.911,-4.832 11.310,-14.596 z"/>
		</symbol>
	</defs>	
	<use xlink:href="#chun"/>
</svg>
