<?xml version="1.0" encoding="UTF-8" standalone="no"?>
<svg xmlns="http://www.w3.org/2000/svg" xmlns:xlink="http://www.w3.org/1999/xlink" version="1.1">
	   <filter id="inset-shadow">
	    	<feOffset dx="0" dy="0"/>
	     	<feGaussianBlur stdDeviation="8" result="offset-blur"/>
	     	<feComposite operator="out" in="SourceGraphic" in2="offset-blur" result="inverse"/>
	     	<feFlood flood-color="black" flood-opacity="1" result="color"/>
	     	<feComposite operator="in" in="color" in2="inverse" result="shadow"/>
	     	<feComposite operator="over" in="shadow" in2="SourceGraphic"/>
	    </filter>
		<symbol id="tile" viewBox="0 0 320 446">
			<rect x="0" y="0" width="320" height="446" rx="30" ry="30" style="fill: #ffffff" filter="url(#inset-shadow)"/>
		</symbol>
	<symbol id="hatsu" viewBox="0 0 320 446">
		<use xlink:href="#tile"/>
		<path style="fill: #003800" d="M 232.286,338.878 c -1.873,-1.142 -5.991,-6.185 -9.873,-12.091 -3.662,-5.572 -9.303,-12.958 -12.536,-16.414 -3.232,-3.455 -5.876,-6.787 -5.876,-7.404 0,-1.416 11.827,-1.463 21.5,-0.086 9.476,1.349 16.448,3.453 20.502,6.186 4.721,3.182 11.693,12.018 12.883,16.326 1.791,6.489 -1.170,9.935 -11.641,13.537 -7.049,2.425 -10.913,2.411 -14.958,-0.055 z		  m -103.282,-3.529 c -1.289,-1.372 -2.150,-2.690 -1.913,-2.927 0.237,-0.237 4.020,-2.774 8.406,-5.637 9.415,-6.146 20.264,-16.333 24.613,-23.111 2.772,-4.320 8.464,-19.585 7.618,-20.431 -0.183,-0.183 -7.121,-0.054 -15.417,0.286 l -15.085,0.619 -1.165,3.889 c -2.260,7.546 -13.216,30.394 -17.859,37.247 -6.059,8.942 -8.988,11.081 -15.057,10.993 -6.803,-0.099 -12.863,-3.819 -25.959,-15.936 l -11.287,-10.443 -4.280,0.586 c -3.422,0.469 -5.405,0.036 -9.885,-2.157 -9.274,-4.541 -20.238,-16.574 -17.551,-19.261 0.770,-0.770 2.215,-0.324 5.065,1.561 10.291,6.810 28.786,2.566 68.754,-15.778 6.875,-3.155 13.690,-6.018 15.145,-6.362 2.532,-0.598 2.606,-0.800 1.721,-4.737 -0.912,-4.061 -3.178,-9.226 -5.110,-11.647 -1.494,-1.873 -11.274,3.714 -20.387,11.649 -11.042,9.615 -12.575,10.441 -17.892,9.644 -4.519,-0.677 -10.475,-4.641 -10.475,-6.972 0,-0.685 5.737,-3.862 12.75,-7.061 7.012,-3.198 18.451,-8.657 25.419,-12.131 l 12.669,-6.316 1.507,-5.283 c 2.867,-10.052 3.666,-9.211 -9.345,-9.825 l -11.5,-0.541 -8.065,7.637 c -16.709,15.822 -38.491,31.723 -54.376,39.696 -7.865,3.947 -14.057,5.435 -14.057,3.377 0,-1.284 6.917,-7.301 21.989,-19.127 13.472,-10.571 37.451,-32.971 45.196,-42.221 2.930,-3.499 3.896,-5.372 3.244,-6.285 -0.511,-0.715 -6.700,-7.468 -13.753,-15.007 -18.849,-20.147 -21.667,-24.813 -16.619,-27.515 1.765,-0.944 3.501,-0.140 12.25,5.672 5.606,3.725 14.588,11.030 19.960,16.233 9.260,8.969 9.842,9.360 11.219,7.542 15.843,-20.919 22.587,-34.399 18.477,-36.939 -0.569,-0.352 -7.288,1.421 -14.931,3.941 -15.562,5.130 -18.164,5.449 -21.033,2.580 -2.255,-2.255 -2.651,-5 -0.721,-5 1.973,0 15.272,-6.594 20.364,-10.098 2.506,-1.724 10.024,-8.654 16.706,-15.400 6.682,-6.745 14.375,-13.668 17.096,-15.383 5.430,-3.423 10.539,-4.045 12.622,-1.536 1.480,1.783 1.797,10.186 0.695,18.418 l -0.736,5.5 6.500,7 6.500,7 2.486,-3 c 1.367,-1.65 4.534,-7.05 7.038,-12 5.132,-10.146 7.355,-20.029 7.412,-32.946 0.030,-6.879 0.381,-8.446 2.612,-11.666 l 2.578,-3.720 3.221,3.666 c 8.301,9.448 12.622,16.392 12.622,20.286 0,1.898 -3.286,8.154 -17.536,33.386 -1.244,2.203 -4.612,6.356 -7.485,9.228 l -5.222,5.222 6.027,6.771 c 3.315,3.724 7.310,7.988 8.879,9.476 l 2.851,2.705 5.140,-7.705 c 3.188,-4.778 5.957,-10.466 7.290,-14.976 l 2.149,-7.271 5.742,4.419 c 6.034,4.643 13.159,11.982 13.159,13.554 0,2.114 -3.367,4.068 -7.012,4.068 -3.229,0 -5.090,0.982 -11.262,5.947 -4.066,3.271 -7.904,6.564 -8.529,7.317 -1.545,1.862 23.101,27.833 60.843,64.111 20.537,19.741 29.316,28.860 31.312,32.528 1.525,2.802 2.588,5.096 2.361,5.096 -0.226,0 -6.892,-3.085 -14.812,-6.857 -7.920,-3.771 -20.996,-9.414 -29.057,-12.540 -25.428,-9.859 -30.333,-14.292 -47.771,-43.174 -22.335,-36.993 -38.451,-63.049 -44.369,-71.736 l -6.000,-8.807 -2.698,6.936 c -7.255,18.648 -24.646,44.702 -41.321,61.904 -2.785,2.873 -4.808,5.481 -4.495,5.795 0.718,0.718 9.465,-1.388 12.898,-3.106 1.421,-0.711 5.021,-3.274 8,-5.693 9.405,-7.641 11.886,-8.114 15.888,-3.025 4.250,5.403 2.154,9.689 -6.688,13.677 -3.289,1.483 -4.384,2.755 -6.252,7.263 -1.245,3.006 -2.031,5.699 -1.745,5.985 0.285,0.285 2.250,-0.338 4.366,-1.387 2.115,-1.049 7.525,-3.367 12.021,-5.151 4.495,-1.784 8.417,-3.876 8.713,-4.649 2.034,-5.301 3.805,-25.297 3.425,-38.681 -0.395,-13.942 -0.314,-14.75 1.470,-14.75 2.215,0 11.943,9.646 14.411,14.289 3.982,7.494 1.460,17.518 -11.100,44.114 -3.091,6.546 -5.392,12.132 -5.111,12.413 0.280,0.280 4.404,-0.451 9.164,-1.626 6.597,-1.628 10.512,-3.356 16.473,-7.270 l 7.819,-5.133 5.087,1.220 c 5.731,1.374 10.970,5.223 10.970,8.058 0,3.274 -6.735,6.056 -20.323,8.394 l -3.823,0.657 0.700,12.691 c 0.385,6.98 0.874,12.884 1.086,13.120 0.728,0.812 24.871,-3.818 31.573,-6.056 l 6.707,-2.239 8.526,4.225 c 9.299,4.608 11.899,7.349 8.630,9.098 -1.089,0.582 -8.255,1.043 -16.262,1.046 -7.873,0 -19.989,0.293 -26.923,0.647 l -12.607,0.643 -0.618,10.102 c -0.979,16.012 -4.682,26.618 -11.767,33.703 -6.908,6.909 -24.823,13.899 -35.619,13.899 -3.965,0 -5.390,-0.489 -7.276,-2.496 z		  m -25.536,-21.287 c 2.181,-1.520 6.250,-6.129 9.040,-10.240 4.947,-7.289 11.292,-20.509 10.313,-21.488 -0.658,-0.658 -17.996,4.626 -24.646,7.512 -2.928,1.271 -10.262,5.809 -16.296,10.086 l -10.971,7.775 4.796,2.819 c 6.894,4.052 17.228,7.442 20.796,6.822 1.65,-0.286 4.785,-1.765 6.967,-3.286 z		  m 60.032,-38.075 6,-0.641 1.611,-8.065 c 0.886,-4.436 1.931,-10.623 2.321,-13.75 l 0.710,-5.684 -10.504,0 c -9.325,0 -10.570,0.206 -11.089,1.841 -0.660,2.079 -5.296,6.744 -6.002,6.039 -0.253,-0.253 0.626,-3.982 1.954,-8.287 l 2.414,-7.827 -2.818,0.563 c -5.664,1.132 -23.040,8.075 -23.552,9.410 -0.301,0.784 1.574,3.475 4.377,6.277 4.730,4.730 9.076,13.323 9.076,17.945 0,1.039 0.787,2.095 1.75,2.346 2.571,0.672 16.831,0.570 23.75,-0.169 z"/>
	</symbol>
	<use xlink:href="#hatsu"/>
</svg>
