<?xml version="1.0" encoding="UTF-8" standalone="no"?>
<svg xmlns="http://www.w3.org/2000/svg" xmlns:xlink="http://www.w3.org/1999/xlink" version="1.1">
	<defs>
	   <filter id="inset-shadow">
	    	<feOffset dx="0" dy="0"/>
	     	<feGaussianBlur stdDeviation="8" result="offset-blur"/>
	     	<feComposite operator="out" in="SourceGraphic" in2="offset-blur" result="inverse"/>
	     	<feFlood flood-color="black" flood-opacity="1" result="color"/>
	     	<feComposite operator="in" in="color" in2="inverse" result="shadow"/>
	     	<feComposite operator="over" in="shadow" in2="SourceGraphic"/>
	    </filter>
		<symbol id="tile" viewBox="0 0 320 446">
			<rect x="0" y="0" width="320" height="446" rx="30" ry="30" style="fill: #ffffff" filter="url(#inset-shadow)"/>
		</symbol>
		<symbol id="nan" viewBox="0 0 320 446">
			<use xlink:href="#tile"/>
			<path style="fill: #000000" d="M 195.984,364.154 c -2.475,-0.670 -9,-3.637 -14.5,-6.594 -5.5,-2.956 -16.842,-8.857 -25.204,-13.113 -8.362,-4.255 -16.625,-8.749 -18.361,-9.985 -2.830,-2.015 -2.975,-2.350 -1.397,-3.233 1.708,-0.956 14.060,-0.411 19.607,0.864 l 2.643,0.608 -2.876,-5.703 c -1.582,-3.136 -3.424,-8.355 -4.093,-11.596 -0.669,-3.241 -1.689,-5.882 -2.267,-5.869 -0.577,0.012 -4.394,0.912 -8.482,2 -12.770,3.396 -20.775,2.026 -22.303,-3.816 -0.419,-1.602 0.502,-1.987 7.127,-2.974 4.184,-0.623 11.168,-2.168 15.519,-3.433 l 7.911,-2.299 -0.231,-8.486 c -0.127,-4.667 -0.406,-8.662 -0.621,-8.876 -0.214,-0.214 -4.748,1.020 -10.075,2.744 -5.327,1.724 -12.070,3.415 -14.985,3.758 -4.983,0.585 -5.487,0.435 -8.436,-2.513 -5.067,-5.067 -4.555,-5.508 12.351,-10.647 8.615,-2.618 11.581,-3.917 10.927,-4.786 -0.493,-0.655 -3.734,-4.714 -7.201,-9.018 -5.654,-7.020 -6.574,-7.759 -8.927,-7.179 -1.442,0.355 -10.858,4.645 -20.924,9.533 l -18.300,8.886 4.926,6.293 c 7.884,10.073 19.992,29.063 25.730,40.355 8.956,17.627 9.413,25.882 1.611,29.141 -7.175,2.998 -16.159,-1.111 -23.911,-10.938 -10.462,-13.262 -31.419,-47.168 -41.192,-66.643 -5.592,-11.144 -8.874,-21.709 -7.248,-23.335 2.623,-2.623 18.518,4.981 28.835,13.796 l 5.263,4.497 4.171,-2.633 c 4.419,-2.789 31.372,-16.827 33.915,-17.663 1.185,-0.389 0.975,-0.955 -1,-2.698 -4.679,-4.127 -14.271,-7.945 -24,-9.554 -14.535,-2.403 -17.551,-3.789 -19.534,-8.981 -2.736,-7.166 -2.100,-8.002 6.352,-8.343 14.323,-0.579 29.681,5.432 42.985,16.826 l 8.303,7.110 12.696,-4.576 c 6.983,-2.516 18.996,-6.754 26.696,-9.417 15.002,-5.187 15.586,-5.682 14.029,-11.887 -0.612,-2.438 -0.853,-2.512 -6.366,-1.936 -3.151,0.329 -10.215,1.564 -15.696,2.744 l -9.966,2.145 -5.838,8.971 c -3.211,4.934 -6.013,8.796 -6.226,8.582 -0.213,-0.213 0.690,-5.536 2.008,-11.828 3.048,-14.548 5.447,-29.945 4.661,-29.922 -0.332,0.01 -3.980,0.897 -8.105,1.972 -11.140,2.904 -25.711,4.522 -30.5,3.385 -3.552,-0.843 -4,-1.281 -4,-3.912 0,-2.645 0.427,-3.054 4,-3.824 14.293,-3.080 26.020,-6.230 32.613,-8.758 l 7.613,-2.919 0.619,-6.229 c 0.921,-9.265 -0.665,-21.133 -5.768,-43.162 -2.518,-10.869 -4.578,-20.139 -4.578,-20.599 0,-2.895 23.228,-28.968 25.807,-28.968 1.961,0 13.465,11.226 20.494,20 6.655,8.307 10.673,15.977 10.688,20.404 0.012,3.662 -4.983,8.578 -15.167,14.926 l -7.365,4.590 -3.255,13.178 c -1.790,7.248 -3.086,13.348 -2.879,13.555 0.206,0.206 5.377,-4.806 11.491,-11.139 6.113,-6.333 11.918,-11.511 12.900,-11.506 4.956,0.026 20.339,11.836 22.137,16.996 0.896,2.572 0.742,3.294 -1.061,4.974 -3.182,2.965 -17.082,9.472 -35.041,16.405 l -16.085,6.209 -2.785,10.681 c -1.532,5.875 -3.286,11.618 -3.899,12.762 -1.093,2.044 -1.058,2.052 2.008,0.466 4.658,-2.409 22.886,-13.383 27.860,-16.773 2.390,-1.629 8.169,-6.296 12.842,-10.370 10.123,-8.826 13.429,-10.684 19.023,-10.691 8.309,-0.01 18.549,9.439 16.895,15.591 -0.339,1.261 -3.251,3.979 -6.683,6.236 -5.572,3.664 -14.753,13.005 -13.759,13.999 0.230,0.230 3.097,-0.280 6.370,-1.134 3.693,-0.964 8.798,-1.423 13.457,-1.208 7.017,0.322 7.964,0.650 14.552,5.036 13.341,8.881 31.416,29.914 31.444,36.589 0.025,6.272 -11.743,32.650 -30.570,68.514 -22.938,43.698 -26.439,47.823 -40.420,47.630 -2.475,-0.034 -6.525,-0.610 -9,-1.280 z			m -6.095,-28.719 c 4.257,-0.913 5.866,-2.004 10.799,-7.322 7.061,-7.613 13.715,-18.561 20.437,-33.625 9.749,-21.849 15.166,-42.488 12.929,-49.265 -1.233,-3.737 -6.994,-9.701 -11.612,-12.021 -4.686,-2.354 -14.875,-3.857 -21.226,-3.131 l -5.730,0.654 -5.712,7.642 c -3.142,4.203 -7.861,10.319 -10.488,13.591 -2.753,3.430 -4.025,5.660 -3.004,5.268 7.096,-2.723 17.007,-5.105 21.205,-5.096 6.362,0.013 16.5,4.575 16.5,7.425 0,2.808 -3.737,4.275 -21.5,8.439 -8.8,2.062 -19.487,4.841 -23.75,6.175 -6.621,2.072 -7.744,2.746 -7.714,4.631 0.040,2.515 2.594,13.670 3.288,14.364 0.522,0.522 8.174,-3.109 20.968,-9.953 4.836,-2.587 9.593,-4.704 10.571,-4.704 0.978,0 3.884,0.717 6.457,1.594 3.820,1.301 4.678,2.031 4.678,3.983 0,2.958 -4.072,5.133 -25.251,13.489 -8.310,3.278 -15.250,6.101 -15.422,6.274 -0.172,0.172 0.161,4.098 0.741,8.724 1.188,9.479 0.478,17.245 -1.783,19.508 -1.948,1.948 -1.731,2.114 4.238,3.253 6.945,1.324 14.499,1.362 20.382,0.100 z			m -19.994,-78.815 c 3.113,-6.213 8.404,-21.130 7.732,-21.801 -0.618,-0.618 -23.400,6.434 -35.600,11.021 l -5.937,2.232 3.940,4.968 c 2.167,2.732 4.902,7.273 6.077,10.089 l 2.137,5.121 9.919,-4.009 c 8.747,-3.535 10.133,-4.436 11.729,-7.621 z"/>
		</symbol>	
	</defs>
	<use xlink:href="#nan"/>
</svg>
