<?xml version="1.0" encoding="UTF-8" standalone="no"?>
<svg xmlns="http://www.w3.org/2000/svg" xmlns:xlink="http://www.w3.org/1999/xlink" version="1.1">
	<defs>
	   <filter id="inset-shadow">
	    	<feOffset dx="0" dy="0"/>
	     	<feGaussianBlur stdDeviation="8" result="offset-blur"/>
	     	<feComposite operator="out" in="SourceGraphic" in2="offset-blur" result="inverse"/>
	     	<feFlood flood-color="black" flood-opacity="1" result="color"/>
	     	<feComposite operator="in" in="color" in2="inverse" result="shadow"/>
	     	<feComposite operator="over" in="shadow" in2="SourceGraphic"/>
	    </filter>
		<symbol id="tile" viewBox="0 0 320 446">
			<rect x="0" y="0" width="320" height="446" rx="30" ry="30" style="fill: #ffffff" filter="url(#inset-shadow)"/>
		</symbol>
		<symbol id="pei" viewBox="0 0 320 446">
			<use xlink:href="#tile"/>
			<path style="fill: #000000" d="M 47.505,330.376 c -1.1,-0.290 -3.713,-0.968 -5.806,-1.506 -2.093,-0.537 -5.581,-2.581 -7.75,-4.540 -6.974,-6.301 -5.514,-11.377 8.977,-31.221 15.099,-20.674 19.119,-28.384 29.071,-55.750 l 6.088,-16.742 -3.290,-2.534 c -11.747,-9.049 -19.790,-19.147 -19.790,-24.849 l 0,-3.426 6.25,0.714 c 5.326,0.608 13.686,2.488 22.430,5.041 1.886,0.550 2.350,0.068 3.444,-3.582 1.015,-3.388 1.408,-3.851 1.999,-2.348 0.404,1.029 0.766,3.462 0.805,5.406 0.067,3.407 0.421,3.734 9.730,9 11.498,6.504 15.340,9.834 15.340,13.297 0,4.878 -8.537,8.651 -19.600,8.661 l -6.100,0.01 -0.643,9.060 c -0.797,11.228 -3.524,24.792 -8.127,40.422 -4.723,16.037 -4.530,19.516 1.080,19.516 2.910,0 18.703,-8.030 34.890,-17.742 l 13,-7.799 -0.264,-12.479 c -0.145,-6.863 -0.753,-22.373 -1.350,-34.465 -1.263,-25.593 -0.348,-22.875 -14.998,-44.573 -5.406,-8.007 -10.517,-16.206 -11.358,-18.217 -2.220,-5.313 -1.969,-13.486 0.540,-17.603 l 2.061,-3.381 6.660,0.682 c 8.624,0.883 20.225,4.807 26.038,8.807 6.590,4.534 16.701,14.933 19.109,19.654 3.254,6.379 2.728,9.315 -3.189,17.787 l -5.25,7.517 -0.271,31.157 c -0.153,17.656 0.125,31.757 0.643,32.543 0.729,1.105 3.467,-0.075 13.521,-5.825 l 12.606,-7.211 -0.020,-27.175 c -0.012,-16.014 -0.615,-33.305 -1.468,-42.102 -1.301,-13.42 -1.796,-15.641 -4.900,-22 -3.869,-7.927 -5.597,-13.548 -5.605,-18.237 -0.005,-2.760 1.016,-3.978 8.006,-9.546 10.778,-8.584 18.036,-12.852 22.990,-13.516 3.952,-0.530 4.318,-0.336 9.146,4.837 15.548,16.665 22.370,33.039 17.093,41.029 -0.958,1.451 -4.853,5.051 -8.654,8 -11.049,8.570 -10.387,6.372 -11.184,37.110 -0.381,14.712 -0.379,26.75 0.003,26.75 1.702,0 17.668,-11.322 20.477,-14.522 2.596,-2.957 3.114,-4.376 3.114,-8.544 0,-15.178 7.425,-16.425 30.5,-5.123 15.747,7.713 19.986,13.099 13.442,17.078 -1.681,1.022 -11.693,4.668 -22.25,8.102 -10.556,3.433 -25.155,8.494 -32.442,11.245 l -13.25,5.002 0.030,18.130 c 0.032,19.267 1.124,31.305 3.130,34.517 3.086,4.942 14.503,8.422 27.441,8.362 7.666,-0.035 8.847,-0.339 17.067,-4.393 8.336,-4.112 9.308,-4.355 17.374,-4.355 9.466,0 13.265,1.554 15.008,6.139 2.077,5.463 -6.131,16.800 -15.422,21.297 -5.278,2.555 -20.881,4.855 -38.630,5.695 -21.153,1.001 -36.255,-1.766 -42.704,-7.825 -4.705,-4.420 -6.723,-16.229 -7.877,-46.095 -0.378,-9.783 -0.995,-17.658 -1.372,-17.5 -0.376,0.158 -6.320,3.380 -13.208,7.160 l -12.523,6.872 -1.232,9.421 c -1.399,10.697 -4.484,22.722 -6.706,26.145 -2.100,3.234 -5.505,2.553 -6.553,-1.311 -0.447,-1.65 -1.107,-7.379 -1.466,-12.733 l -0.652,-9.733 -16.649,16.269 c -22.719,22.200 -29.669,27.405 -40.552,30.369 -5.325,1.450 -22.661,2.586 -26,1.703 z"/>
		</symbol>
	</defs>
	<use xlink:href="#pei"/>
</svg>
