<?xml version="1.0" encoding="UTF-8" standalone="no"?>
<svg xmlns="http://www.w3.org/2000/svg" xmlns:xlink="http://www.w3.org/1999/xlink" version="1.1">
	<defs>
	   <filter id="inset-shadow">
	    	<feOffset dx="0" dy="0"/>
	     	<feGaussianBlur stdDeviation="8" result="offset-blur"/>
	     	<feComposite operator="out" in="SourceGraphic" in2="offset-blur" result="inverse"/>
	     	<feFlood flood-color="black" flood-opacity="1" result="color"/>
	     	<feComposite operator="in" in="color" in2="inverse" result="shadow"/>
	     	<feComposite operator="over" in="shadow" in2="SourceGraphic"/>
	    </filter>
		<symbol id="tile" viewBox="0 0 320 446">
			<rect x="0" y="0" width="320" height="446" rx="30" ry="30" style="fill: #ffffff" filter="url(#inset-shadow)"/>
		</symbol>
		<symbol id="tan" viewBox="0 0 320 446">
			<use xlink:href="#tile"/>
			<path style="fill: #000000" d="M 158.158,367.254 c -1.116,-1.237 -5.435,-8.397 -9.596,-15.910 -8.217,-14.835 -20.864,-34.164 -33.403,-51.052 l -7.954,-10.713 -4.932,3.306 c -14.870,9.968 -33.108,18.721 -53.499,25.675 -12.071,4.117 -17.255,4.950 -16.365,2.631 0.277,-0.722 7.109,-5.083 15.181,-9.691 15.486,-8.839 50.251,-31.582 50.251,-32.874 0,-0.418 -1.658,-2.698 -3.686,-5.066 -4.022,-4.699 -3.681,-4.806 4.558,-1.433 1.854,0.759 4.143,1.380 5.085,1.380 1.773,0 13.339,-11.401 16.490,-16.255 l 1.788,-2.755 -13.868,-14.542 c -7.627,-7.998 -14.919,-15.845 -16.202,-17.437 -1.283,-1.592 -6.385,-6.387 -11.336,-10.656 -9.724,-8.383 -13.397,-13.927 -14.485,-21.858 l -0.615,-4.493 3.385,0.022 c 4.311,0.028 11.119,3.109 16.361,7.404 l 4.090,3.352 8.966,-3.385 c 4.931,-1.862 17.854,-6.596 28.716,-10.520 l 19.75,-7.134 0,-5.868 c 0,-4.035 -0.390,-5.864 -1.25,-5.855 -0.687,0.007 -5.525,0.901 -10.75,1.986 -11.614,2.413 -19.741,2.569 -22.783,0.439 -2.370,-1.660 -5.713,-7.276 -4.847,-8.142 0.284,-0.284 4.382,-0.941 9.107,-1.460 4.724,-0.519 13.412,-2.157 19.306,-3.639 l 10.716,-2.696 -0.038,-10 c -0.045,-11.675 -0.785,-13.514 -10.997,-27.298 -8.458,-11.418 -14.599,-23.553 -15.227,-30.094 -0.401,-4.178 -0.180,-5.191 1.250,-5.740 3.378,-1.296 61.983,11.389 69.841,15.118 4.283,2.032 5.459,5.100 3.511,9.159 -1.560,3.252 -6.887,6.496 -15.339,9.341 -7.987,2.688 -12.079,5.300 -13.938,8.895 -1.498,2.897 -4.168,21.844 -3.212,22.799 0.977,0.977 5.316,-2.193 12.943,-9.459 7.397,-7.046 8.034,-7.430 11.425,-6.880 7.128,1.156 21.282,8.946 21.282,11.713 0,1.428 -8.964,5.691 -28.5,13.552 l -18,7.243 -0.297,6.078 -0.297,6.078 4.797,-1.893 c 2.638,-1.041 12.893,-5.165 22.787,-9.164 11.355,-4.589 19.468,-7.296 22,-7.341 10.054,-0.179 34.509,18.340 34.509,26.135 0,4.122 -1.826,6.102 -9.952,10.789 -4.340,2.503 -9.524,6.358 -11.518,8.566 -8.362,9.256 -16.445,24.806 -19.040,36.629 -1.763,8.036 -1.866,8.214 -4.397,7.611 -1.425,-0.339 -3.659,-1.159 -4.965,-1.822 -1.907,-0.967 -4.029,-0.866 -10.794,0.515 -4.630,0.946 -8.676,1.976 -8.989,2.289 -0.707,0.707 11.067,8.379 20.842,13.579 12.709,6.761 24.513,10.740 53.385,17.994 15.438,3.879 29.649,7.712 31.579,8.519 3.815,1.594 6.532,4.232 5.462,5.302 -0.369,0.369 -5.271,0.522 -10.892,0.337 -26.929,-0.881 -27.778,-0.684 -40.193,9.320 -8.696,7.009 -11.541,7.294 -19.539,1.962 -7.689,-5.126 -26.396,-24.276 -39.896,-40.841 -6.275,-7.7 -11.788,-13.955 -12.25,-13.9 -0.461,0.055 -1.582,0.167 -2.489,0.25 -1.479,0.134 -1.579,1.513 -0.967,13.4 0.857,16.662 3.456,34.711 8.678,60.256 4.869,23.822 6.113,39.319 3.553,44.270 -3.058,5.914 -10.642,8.021 -14.296,3.972 z 			m -15.951,-62.535 c 1.352,-2.188 5.205,-53.478 4.146,-55.193 -1.289,-2.086 -4.600,0.945 -10.348,9.478 -3.334,4.95 -8.898,12.014 -12.363,15.699 l -6.300,6.699 3,3.385 c 17.762,20.046 20.342,22.397 21.867,19.929 z 			m -2.451,-67.180 c 3.528,-1.072 6.783,-2.531 7.234,-3.242 0.883,-1.392 1.185,-20.123 0.337,-20.970 -0.449,-0.449 -29.356,6.055 -30.383,6.836 -0.217,0.165 1.440,2.293 3.684,4.728 2.244,2.435 5.727,6.719 7.740,9.520 2.012,2.801 3.954,5.089 4.315,5.085 0.360,-0.004 3.543,-0.885 7.071,-1.958 z 			m 32.404,-8.535 c 3.949,-0.785 8.479,-1.556 10.066,-1.713 2.563,-0.253 3.459,-1.404 8.011,-10.285 2.819,-5.5 5.907,-11.112 6.863,-12.472 0.955,-1.359 1.738,-2.978 1.738,-3.596 0,-1.189 -14.114,1.581 -30.039,5.898 l -8.460,2.293 -0.887,6.529 c -0.488,3.591 -0.566,8.666 -0.175,11.278 0.666,4.444 0.872,4.709 3.206,4.123 1.372,-0.344 5.725,-1.268 9.675,-2.054 z 			M 147.840,195.306 c 0,-6.709 -0.053,-6.732 -8.593,-3.713 -3.248,1.148 -13.504,4.283 -22.790,6.967 -9.286,2.683 -17.055,5.050 -17.265,5.260 -0.209,0.209 1.814,2.435 4.497,4.945 l 4.879,4.563 19.636,-6.110 19.636,-6.110 0,-5.801 z 			m 18.636,-1.252 c 2.674,-1.897 6.616,-4.700 8.758,-6.229 2.655,-1.894 5.048,-2.748 7.518,-2.684 4.017,0.105 12.174,3.883 16.815,7.789 l 3.014,2.536 2.674,-5.959 c 3.242,-7.225 2.620,-9.058 -3.923,-11.557 -5.659,-2.161 -14.072,-1.537 -27.982,2.076 -13.829,3.593 -13.512,3.335 -13.512,11.013 0,3.555 0.399,6.464 0.886,6.464 0.487,0 3.075,-1.552 5.75,-3.450 z			"/>
		</symbol>
	</defs>
	<use xlink:href="#tan"/>
</svg>
