<?xml version="1.0" encoding="UTF-8" standalone="no"?>
<svg xmlns="http://www.w3.org/2000/svg" xmlns:xlink="http://www.w3.org/1999/xlink" version="1.1">
	<defs>
	   <filter id="inset-shadow">
	    	<feOffset dx="0" dy="0"/>
	     	<feGaussianBlur stdDeviation="8" result="offset-blur"/>
	     	<feComposite operator="out" in="SourceGraphic" in2="offset-blur" result="inverse"/>
	     	<feFlood flood-color="black" flood-opacity="1" result="color"/>
	     	<feComposite operator="in" in="color" in2="inverse" result="shadow"/>
	     	<feComposite operator="over" in="shadow" in2="SourceGraphic"/>
	    </filter>
		<symbol id="tile" viewBox="0 0 320 446">
			<rect x="0" y="0" width="320" height="446" rx="30" ry="30" style="fill: #ffffff" filter="url(#inset-shadow)"/>
		</symbol>
		<symbol id="xia" viewBox="0 0 320 446">
			<use xlink:href="#tile"/>
			<path style="fill: #000000" d="M 115.167,339.027 c -3.561,-1.548 -7.260,-6.769 -7.265,-10.255 -0.003,-1.838 0.709,-2.352 3.996,-2.877 2.2,-0.351 4,-0.726 4,-0.833 0,-1.017 -35.208,-72.919 -40.178,-82.050 -9.987,-18.350 -16.116,-30.537 -15.612,-31.041 0.250,-0.250 3.871,-0.744 8.046,-1.097 6.948,-0.587 7.957,-0.426 11.918,1.894 4.931,2.890 9.123,7.755 13.757,15.967 l 3.210,5.688 4.679,-1.885 c 2.573,-1.037 10.455,-4.054 17.515,-6.705 l 12.835,-4.820 -0.567,-3.5 c -2.602,-16.061 -2.984,-43.029 -0.629,-44.484 1.550,-0.958 7.041,5.912 9.129,11.422 1.158,3.058 2.775,9.386 3.593,14.061 0.817,4.675 1.598,8.615 1.735,8.757 0.136,0.141 7.333,-8.965 15.992,-20.238 8.658,-11.273 18.943,-23.988 22.855,-28.257 11.911,-12.997 11.361,-12.243 9.692,-13.298 -4.578,-2.895 -28.713,-0.051 -89.962,10.603 -28.448,4.948 -41.914,5.708 -50.334,2.839 -4.835,-1.647 -8.968,-5.670 -8.464,-8.238 0.219,-1.118 9.196,-2.952 37.868,-7.736 48.938,-8.164 77.778,-14.065 102.419,-20.957 43.020,-12.031 48.411,-12.705 57.564,-7.194 14.714,8.860 30.796,22.567 34.118,29.079 3.447,6.757 1.029,10.138 -9.293,12.996 -6.591,1.824 -11.256,2.317 -34.889,3.684 -19.493,1.127 -31.484,3.016 -33.789,5.321 -1.178,1.178 -0.866,1.481 2.101,2.037 5.065,0.950 8.924,4.26 8.104,6.951 -0.359,1.182 -3.908,5.524 -7.885,9.649 -6.538,6.781 -10.807,14.056 -9.194,15.669 0.717,0.717 9.969,-3.599 16.109,-7.515 7.702,-4.912 9.135,-4.540 26.133,6.799 25.882,17.266 32.987,24.212 32.781,32.051 -0.136,5.219 -2.764,9.957 -13.202,23.808 -11.057,14.672 -14.129,19.516 -22.631,35.686 -20.008,38.056 -21.898,40.992 -27.303,42.422 -2.047,0.541 -18.122,1.699 -35.722,2.571 -17.6,0.872 -35.825,2.241 -40.5,3.042 -10.023,1.717 -8.729,1.719 -12.730,-0.02 z			m 32.572,-17.026 c 0.327,-0.327 -4.475,-31.339 -13.705,-88.490 -0.602,-3.732 -1.060,-4.441 -2.681,-4.156 -2.247,0.394 -27.343,9.835 -29.166,10.972 -0.862,0.537 2.608,8.390 12.029,27.220 14.561,29.101 19.712,42.403 19.694,50.852 l -0.011,5.388 6.716,-0.688 c 3.694,-0.378 6.900,-0.872 7.125,-1.097 z			m 18.584,-5.240 c 0.514,-3.976 2.313,-22.248 9.270,-94.140 l 0.618,-6.390 -3.907,0.682 c -9.306,1.624 -25.407,6.892 -25.407,8.312 0,2.142 8.919,88.144 9.597,92.537 0.565,3.665 0.676,3.75 4.896,3.75 l 4.318,0 0.614,-4.75 z			m 23.756,1.871 c 1.080,-0.982 21.180,-44.656 25.158,-54.664 5.154,-12.969 6.962,-20.771 7.066,-30.496 0.110,-10.294 -1.340,-13.150 -8.242,-16.226 -3.445,-1.535 -7.438,-2.196 -15.264,-2.528 l -10.599,-0.449 -0.660,3.872 c -2.341,13.729 -4.124,28.354 -7.596,62.309 -2.161,21.140 -3.710,38.793 -3.440,39.229 0.538,0.871 12.483,-0.049 13.580,-1.045 z			m -27.441,-108.730 14.241,-4.890 0.008,-3.527 c 0.010,-4.685 -2.211,-7.628 -6.216,-8.231 -3.048,-0.459 -4.018,0.237 -14.025,10.075 -9.987,9.818 -12.586,13.083 -9.5,11.931 0.687,-0.256 7.658,-2.667 15.491,-5.357 z"/>
		</symbol>
	</defs>
	<use xlink:href="#xia"/>
</svg>
